<?xml version="1.0" standalone="no"?>
<!DOCTYPE svg PUBLIC "-//W3C//DTD SVG 20010904//EN"
 "http://www.w3.org/TR/2001/REC-SVG-20010904/DTD/svg10.dtd">
<svg version="1.0" xmlns="http://www.w3.org/2000/svg"
 width="1254.000000pt" height="1254.000000pt" viewBox="0 0 1254.000000 1254.000000"
 preserveAspectRatio="xMidYMid meet">

<g transform="translate(0.000000,1254.000000) scale(0.100000,-0.100000)"
fill="#000000" stroke="none">
<path d="M9682 10095 c0 -16 2 -22 5 -12 2 9 2 23 0 30 -3 6 -5 -1 -5 -18z"/>
<path d="M9682 8875 c0 -16 2 -22 5 -12 2 9 2 23 0 30 -3 6 -5 -1 -5 -18z"/>
<path d="M2570 8414 l0 -191 -232 -6 c-261 -6 -355 -19 -517 -73 -350 -116
-634 -362 -799 -689 -37 -75 -91 -227 -107 -305 -4 -20 -20 -46 -39 -62 -25
-22 -27 -27 -13 -28 61 -1 146 -133 167 -259 8 -48 10 -182 8 -428 -4 -342 -5
-361 -27 -423 -29 -80 -67 -139 -108 -165 -18 -11 -32 -26 -33 -32 0 -7 1 -13
3 -13 1 0 19 -6 41 -14 34 -12 41 -21 72 -91 104 -240 325 -469 578 -599 174
-89 336 -130 559 -142 l127 -7 0 -47 0 -47 -182 -6 c-153 -4 -198 -9 -278 -30
-207 -56 -378 -152 -515 -291 -127 -128 -213 -270 -274 -452 -56 -165 -60
-247 -55 -963 4 -594 6 -648 23 -685 23 -53 89 -112 139 -126 28 -7 558 -9
1720 -8 l1681 3 28 23 c36 28 52 36 138 62 111 33 258 110 420 218 157 105
441 326 535 417 54 52 57 53 139 65 46 6 120 25 165 42 69 26 100 32 211 37
114 6 136 10 183 34 123 64 192 167 192 288 0 71 -17 133 -49 178 l-20 28 44
43 c60 59 88 127 89 215 1 84 -14 131 -61 192 l-35 45 32 39 c57 71 73 122 68
213 -3 50 -11 94 -22 115 -29 55 -98 123 -151 147 -47 23 -61 24 -257 24 -115
0 -208 4 -208 8 0 5 25 107 56 228 51 202 55 226 52 309 -5 104 -25 160 -82
223 -119 131 -316 107 -396 -48 -10 -20 -38 -119 -63 -220 -77 -316 -119 -407
-292 -640 -109 -147 -168 -256 -210 -384 -23 -71 -33 -90 -60 -106 -17 -11
-44 -31 -60 -46 -36 -33 -284 -188 -291 -181 -3 3 -10 36 -15 73 -43 307 -212
580 -460 743 -180 118 -358 170 -586 171 l-93 0 0 48 0 49 158 6 c190 7 327
33 469 88 306 120 575 386 700 693 17 42 36 72 49 78 17 8 24 27 39 121 27
163 34 835 10 1051 -9 83 -20 155 -24 161 -5 5 -22 58 -39 116 -133 456 -452
796 -887 946 -173 60 -224 65 -697 70 l-438 5 0 191 0 192 -110 0 -110 1 0
-192z m1250 -357 c450 -130 791 -495 900 -962 34 -145 42 -307 37 -715 -4
-348 -6 -393 -25 -465 -121 -465 -441 -782 -892 -882 -65 -14 -179 -17 -880
-20 -527 -3 -843 -1 -915 6 -281 28 -529 143 -721 335 -97 97 -163 189 -221
311 l-35 75 46 41 c26 23 58 63 72 90 51 102 54 135 55 539 0 338 -2 382 -19
447 -31 116 -76 179 -161 225 -22 12 -31 24 -31 42 0 30 63 213 97 280 162
322 484 577 828 655 50 11 99 22 110 25 11 2 389 3 840 2 l820 -2 95 -27z
m2055 -2673 c36 -24 64 -74 76 -139 16 -88 0 -172 -102 -516 l-19 -66 -65 -32
c-108 -53 -174 -155 -175 -266 0 -85 15 -128 65 -189 l43 -54 -32 -31 c-59
-57 -81 -115 -81 -211 0 -95 11 -123 76 -201 l38 -46 -24 -23 c-46 -44 -75
-117 -74 -189 0 -37 6 -80 12 -98 20 -54 75 -123 122 -151 24 -15 45 -30 45
-34 0 -3 -37 -9 -82 -13 -168 -13 -341 48 -455 161 -188 188 -246 483 -151
769 49 145 110 262 204 385 185 244 235 352 318 679 29 115 60 221 70 236 35
54 131 69 191 29z m-3605 -749 c29 -47 138 -100 265 -128 88 -19 130 -21 360
-22 223 0 270 3 330 19 128 34 225 99 225 152 0 16 11 16 138 11 75 -3 165
-13 200 -22 186 -45 372 -165 487 -316 89 -115 129 -198 173 -359 l26 -95 3
-741 c4 -674 3 -743 -12 -758 -14 -14 -54 -16 -331 -16 l-314 0 0 50 c0 27 18
138 39 247 22 109 43 221 47 248 4 28 9 57 10 65 2 8 6 50 10 93 l7 77 -37 0
c-20 0 -39 0 -43 -1 -4 0 -10 7 -13 16 -3 9 -16 -53 -28 -138 -12 -86 -42
-243 -67 -351 -25 -107 -45 -220 -45 -251 l0 -55 -690 0 -690 0 0 53 c0 28
-10 90 -21 137 -87 369 -120 622 -100 773 48 359 285 633 621 718 41 10 96 19
122 19 29 0 53 6 62 16 20 19 22 103 4 105 -49 5 -154 -6 -215 -21 -402 -103
-688 -450 -718 -870 -11 -158 25 -425 95 -699 11 -44 23 -114 27 -156 l6 -75
-535 0 c-525 0 -536 0 -561 21 -15 11 -31 37 -37 57 -8 26 -10 236 -8 692 4
564 7 666 21 732 79 365 301 626 638 749 110 40 223 57 391 58 l136 1 22 -35z
m4131 -110 c62 -44 83 -85 83 -164 1 -77 -20 -123 -74 -158 -32 -23 -39 -23
-312 -23 -221 0 -285 3 -306 14 -74 39 -114 126 -93 201 14 53 44 100 76 121
62 40 91 44 342 41 l241 -2 43 -30z m38 -511 c74 -84 46 -244 -51 -295 -34
-17 -60 -19 -304 -19 -297 0 -312 3 -362 68 -20 26 -27 49 -30 97 -5 74 19
130 70 167 32 22 40 23 313 28 154 3 292 1 307 -3 15 -5 41 -24 57 -43z
m-1614 -332 c1 -134 23 -228 81 -349 90 -188 289 -356 465 -394 28 -6 47 -14
42 -18 -255 -210 -554 -405 -722 -471 -100 -39 -92 -95 -89 602 l3 610 105 68
c58 38 107 69 110 69 3 1 5 -52 5 -117z m1544 -128 c47 -39 62 -110 40 -189
-15 -56 -92 -128 -152 -143 -71 -18 -332 -15 -398 4 -164 49 -211 252 -77 334
31 19 51 20 295 20 l261 0 31 -26z"/>
<path d="M2240 7419 c-288 -43 -517 -248 -611 -549 -23 -73 -24 -84 -24 -455
l0 -380 28 -80 c44 -130 100 -220 196 -316 94 -94 169 -141 296 -186 l80 -28
855 0 855 0 75 23 c260 81 454 283 520 542 20 79 21 101 17 464 -3 351 -5 386
-24 442 -68 203 -213 370 -398 459 -150 73 -101 69 -995 71 -468 1 -832 -2
-870 -7z m332 -693 c103 -49 184 -162 204 -284 8 -53 -23 -92 -75 -92 -50 0
-79 23 -87 68 -9 52 -28 84 -68 119 -70 62 -156 65 -231 7 -31 -23 -75 -105
-75 -138 0 -30 -38 -56 -79 -56 -83 0 -100 77 -46 197 45 100 109 160 208 195
74 26 174 20 249 -16z m1381 5 c110 -53 194 -169 205 -284 4 -40 1 -52 -18
-72 -33 -35 -91 -35 -119 1 -12 15 -21 35 -21 46 0 30 -36 93 -70 121 -64 55
-149 57 -218 7 -38 -27 -82 -102 -82 -138 0 -33 -37 -62 -80 -62 -80 0 -100
75 -50 188 45 102 107 162 209 204 63 25 179 20 244 -11z m-467 -716 c10 -40
-4 -74 -53 -126 -89 -95 -241 -143 -380 -119 -125 21 -248 94 -289 172 -19 37
-18 61 7 92 33 41 81 36 136 -15 67 -61 122 -82 218 -82 95 0 152 22 217 81
24 22 52 42 63 44 30 7 74 -19 81 -47z"/>
<path d="M9010 8593 c-72 -5 -232 -33 -249 -44 -11 -6 -1 -6 29 -1 25 4 106 6
180 5 282 -3 496 -93 711 -300 193 -186 313 -400 377 -668 22 -95 26 -133 26
-280 1 -251 -35 -407 -144 -630 -123 -250 -297 -429 -529 -545 -81 -40 -234
-90 -278 -90 -13 0 -21 -4 -18 -10 10 -15 271 -12 366 5 463 81 831 469 945
995 23 106 26 421 6 515 -62 286 -176 500 -361 685 -142 142 -266 222 -441
284 -183 66 -409 95 -620 79z m730 -221 c69 -34 141 -75 160 -92 l35 -29 -61
-1 c-54 0 -63 3 -90 31 -16 17 -60 56 -99 87 -79 63 -95 77 -80 70 6 -2 66
-32 135 -66z m317 -244 c16 -18 49 -59 72 -90 l42 -58 -43 1 c-30 2 -35 3 -15
6 28 4 35 17 16 29 -6 3 -15 1 -19 -6 -4 -7 -12 -10 -18 -6 -5 3 -20 -3 -32
-14 -13 -11 -27 -20 -31 -20 -14 0 -109 152 -102 163 3 5 1 7 -4 4 -6 -4 -16
0 -23 8 -11 13 -3 15 57 15 65 0 71 -2 100 -32z m197 -310 c13 -29 26 -65 30
-80 l6 -28 -85 0 c-64 0 -85 3 -85 13 0 8 -11 41 -25 75 -14 34 -25 64 -25 67
0 3 36 5 81 5 l80 0 23 -52z m84 -265 c6 -32 14 -89 17 -128 l7 -70 -90 3 -89
3 -2 52 c-1 29 -8 85 -15 125 l-12 72 87 0 86 0 11 -57z m18 -355 c-6 -63 -12
-100 -22 -150 -6 -28 -6 -28 -91 -28 l-85 0 6 28 c3 15 9 63 12 107 3 44 7 86
9 93 3 8 30 12 91 12 l87 0 -7 -62z m-69 -276 c14 -9 10 -29 -26 -122 l-21
-55 -80 0 c-67 0 -79 2 -74 15 3 8 15 44 25 80 11 36 22 71 24 78 5 14 131 17
152 4z m-114 -299 c-39 -62 -88 -130 -112 -156 -22 -24 -31 -27 -83 -26 -32 1
-58 3 -58 5 0 3 69 121 107 182 12 20 21 22 88 22 l75 0 -17 -27z m-277 -318
c-48 -37 -66 -45 -99 -45 l-41 0 44 45 c42 42 47 45 99 45 l54 0 -57 -45z
m-126 -82 c0 -7 -151 -76 -155 -71 -11 10 100 77 127 76 15 -1 28 -3 28 -5z"/>
<path d="M9680 8386 c0 -2 8 -10 18 -17 15 -13 16 -12 3 4 -13 16 -21 21 -21
13z"/>
<path d="M7475 6350 c-183 -38 -312 -165 -345 -340 -6 -34 -10 -662 -10 -1784
0 -1878 -2 -1793 54 -1904 36 -71 107 -144 174 -180 124 -66 -14 -62 2047 -62
2048 0 1926 -3 2038 58 113 61 210 178 247 300 19 60 20 94 20 543 l0 479
-499 0 c-469 0 -503 1 -563 20 -126 39 -243 146 -293 266 -27 65 -29 80 -33
239 -5 192 4 249 51 338 54 103 149 183 273 229 58 22 71 22 562 26 l502 3 0
414 c0 268 -4 433 -11 467 -25 117 -104 243 -193 310 l-44 33 -4 120 c-3 105
-7 127 -30 178 -33 70 -121 164 -188 201 -91 50 -151 56 -550 56 l-365 0 -22
-33 c-13 -17 -66 -76 -120 -129 l-96 -98 376 0 c227 0 396 -4 426 -11 86 -18
175 -90 196 -157 l6 -22 -1794 2 -1795 3 -26 24 c-14 13 -28 33 -32 43 -9 29
13 72 49 94 30 18 56 19 385 22 194 2 352 7 350 11 -2 4 -35 35 -73 68 -39 33
-94 88 -124 121 l-53 62 -226 -1 c-125 -1 -245 -5 -267 -9z m77 -767 c97 -6
117 -18 98 -54 -12 -21 -17 -22 -104 -16 -101 6 -140 17 -150 43 -10 25 13 47
43 40 14 -4 65 -9 113 -13z m563 -38 l0 -30 -121 -3 c-131 -3 -153 5 -139 48
6 20 13 20 133 18 l127 -3 0 -30z m470 15 c13 -41 -10 -50 -125 -50 -60 0
-115 3 -124 6 -16 6 -22 45 -9 57 3 4 62 7 129 7 115 0 123 -1 129 -20z m460
0 c13 -41 -10 -50 -125 -50 -60 0 -115 3 -124 6 -16 6 -22 45 -9 57 3 4 62 7
129 7 115 0 123 -1 129 -20z m460 -15 l0 -30 -122 -3 c-115 -2 -123 -1 -133
18 -9 16 -8 25 1 36 9 12 36 14 133 12 l121 -3 0 -30z m460 0 l0 -30 -125 0
c-112 0 -125 2 -128 18 -9 45 1 48 130 45 l123 -3 0 -30z m470 15 c13 -41 -10
-50 -125 -50 -60 0 -115 3 -124 6 -16 6 -22 45 -9 57 3 4 62 7 129 7 115 0
123 -1 129 -20z m460 -15 l0 -30 -124 0 c-105 0 -125 3 -134 17 -8 12 -7 21 3
32 11 14 33 16 134 14 l121 -3 0 -30z m332 9 c43 -17 118 -87 133 -124 10 -24
10 -33 0 -45 -20 -24 -33 -18 -73 29 -23 28 -61 56 -102 77 -65 32 -79 51 -53
77 12 12 41 8 95 -14z m172 -428 c8 -9 11 -59 9 -152 -3 -136 -4 -139 -25
-142 -35 -5 -43 32 -37 165 3 65 7 124 10 131 5 16 29 15 43 -2z m-2119 -512
c193 -119 348 -220 343 -224 -20 -20 -269 -160 -283 -160 -8 0 -103 55 -210
121 -107 67 -202 124 -211 126 -9 3 -104 -50 -220 -122 -112 -70 -209 -128
-214 -128 -11 0 -296 165 -292 169 1 1 148 93 327 204 179 111 339 211 355
221 17 10 35 17 42 14 6 -2 170 -101 363 -221z m-867 -465 l67 -40 0 -208 c0
-171 3 -210 14 -214 8 -3 94 -54 190 -114 l176 -108 0 -179 c0 -138 -3 -177
-12 -173 -7 3 -96 56 -198 119 -102 63 -247 152 -322 199 l-137 84 -1 382 0
383 78 -46 c42 -25 107 -64 145 -85z m1227 -248 l0 -379 -232 -145 c-128 -79
-281 -174 -341 -211 l-107 -66 2 182 3 182 193 119 192 119 0 204 0 203 143
85 c78 47 143 86 145 86 1 0 2 -171 2 -379z m1759 -885 c8 -9 11 -52 9 -127
l-3 -114 -25 0 -25 0 -3 114 c-3 107 4 141 28 141 4 0 13 -6 19 -14z m-41
-503 c4 -27 -47 -86 -103 -118 -56 -33 -129 -44 -138 -20 -9 21 9 55 29 55 26
0 108 47 139 79 34 36 68 38 73 4z m-3859 -83 c24 -6 66 -10 94 -9 57 3 82
-16 61 -48 -10 -15 -26 -18 -100 -17 -102 1 -147 16 -152 53 -4 26 14 43 38
36 8 -2 35 -9 59 -15z m2011 -34 c0 -40 -17 -46 -137 -46 -101 0 -113 2 -123
19 -13 25 -13 27 3 43 10 10 44 12 135 10 119 -3 122 -4 122 -26z m460 -6 c0
-38 -15 -42 -150 -38 -101 3 -105 4 -108 26 -6 43 8 47 137 44 l121 -3 0 -29z
m-1850 1 c0 -37 -11 -41 -130 -41 -119 0 -130 4 -130 41 l0 29 130 0 130 0 0
-29z m464 13 c3 -8 1 -24 -4 -35 -10 -17 -22 -19 -120 -19 -59 0 -115 3 -124
6 -16 6 -22 45 -9 57 3 4 61 7 129 7 102 0 123 -3 128 -16z m463 0 c3 -9 2
-24 -4 -33 -15 -24 -241 -24 -256 0 -6 9 -7 24 -4 33 5 14 25 16 132 16 107 0
127 -2 132 -16z m1388 -4 c14 -43 -9 -51 -133 -48 -93 2 -117 6 -125 19 -6 9
-7 24 -4 33 5 14 25 16 131 16 117 0 125 -1 131 -20z m463 -12 c4 -35 -13 -40
-147 -36 -109 3 -133 13 -118 52 6 14 23 16 134 14 l128 -3 3 -27z"/>
<path d="M6022 6273 c-24 -10 -31 -42 -48 -218 l-16 -179 23 -19 c23 -18 62
-17 83 3 13 12 23 78 37 237 12 134 12 143 -6 163 -17 19 -45 24 -73 13z"/>
<path d="M5515 6125 c-14 -13 -25 -32 -25 -41 0 -22 168 -281 194 -300 11 -8
26 -14 34 -14 17 0 62 45 62 63 0 18 -166 277 -192 300 -27 23 -44 22 -73 -8z"/>
<path d="M6369 5939 c-95 -102 -115 -128 -117 -157 -3 -26 2 -40 14 -49 39
-28 60 -15 181 108 65 66 122 127 126 135 19 33 -19 84 -62 84 -23 0 -49 -23
-142 -121z"/>
<path d="M10790 4251 c-74 -24 -138 -80 -164 -143 -22 -51 -20 -143 3 -193 35
-77 136 -145 215 -145 89 0 186 61 228 143 57 113 1 265 -121 323 -41 20 -123
27 -161 15z"/>
</g>
</svg>
