<?xml version="1.0" standalone="no"?>
<!DOCTYPE svg PUBLIC "-//W3C//DTD SVG 20010904//EN"
 "http://www.w3.org/TR/2001/REC-SVG-20010904/DTD/svg10.dtd">
<svg version="1.0" xmlns="http://www.w3.org/2000/svg"
 width="1254.000000pt" height="1254.000000pt" viewBox="0 0 1254.000000 1254.000000"
 preserveAspectRatio="xMidYMid meet">

<g transform="translate(0.000000,1254.000000) scale(0.100000,-0.100000)"
fill="#000000" stroke="none">
<path d="M6095 10824 c-22 -2 -98 -9 -170 -14 -264 -22 -619 -96 -898 -186
-827 -269 -1493 -751 -2088 -1510 -275 -352 -560 -906 -703 -1366 -82 -264
-150 -571 -171 -768 -4 -36 -9 -74 -11 -85 -2 -11 -9 -122 -15 -248 -14 -276
1 -616 36 -837 38 -239 103 -514 173 -725 120 -364 297 -729 510 -1055 512
-783 1300 -1401 2171 -1704 155 -54 420 -127 569 -156 1037 -207 2133 9 3022
594 429 282 836 668 1136 1076 156 211 313 478 431 733 115 251 200 489 273
772 94 365 130 667 130 1080 0 481 -62 900 -200 1340 -310 994 -926 1828
-1760 2382 -374 248 -838 453 -1275 562 -179 44 -451 89 -640 105 -86 7 -472
15 -520 10z m590 -299 c735 -86 1411 -369 1996 -837 375 -300 710 -690 963
-1120 66 -113 202 -384 212 -422 l6 -26 -318 0 -319 0 -24 52 c-33 73 -116
152 -198 191 -60 28 -78 31 -153 31 -225 -2 -398 -169 -402 -388 -2 -122 47
-240 133 -316 42 -37 43 -42 41 -137 l-2 -61 -127 -136 -128 -135 -190 -1
c-170 0 -193 -2 -222 -20 -85 -51 -90 -165 -10 -224 27 -20 44 -21 256 -24
172 -3 236 0 259 10 31 13 371 360 394 402 7 12 14 68 17 126 l6 105 46 6
c108 16 220 96 275 199 l29 55 374 0 375 0 38 -118 c57 -176 128 -463 152
-617 113 -726 58 -1375 -177 -2065 l-44 -130 -361 -3 -362 -2 -26 51 c-51 101
-158 181 -274 204 l-55 11 -3 98 c-2 54 -7 106 -10 116 -4 10 -91 104 -194
209 l-186 191 -247 0 c-269 0 -291 -4 -318 -58 -35 -68 -26 -122 27 -172 27
-25 31 -25 231 -30 l203 -5 126 -132 126 -131 0 -80 0 -80 -39 -31 c-44 -35
-93 -107 -114 -166 -65 -185 28 -402 211 -492 52 -26 67 -28 167 -28 106 0
114 1 178 34 79 40 145 106 178 179 l24 52 297 0 c164 0 298 -2 298 -5 0 -14
-110 -223 -180 -339 -298 -500 -745 -968 -1245 -1303 -517 -346 -1218 -590
-1805 -628 -52 -3 -112 -8 -132 -11 l-38 -6 0 366 0 366 459 0 c296 0 470 4
488 10 15 6 123 105 238 220 l210 210 45 -16 c284 -101 579 140 533 436 -46
296 -369 445 -618 286 -152 -98 -224 -299 -165 -466 l19 -55 -177 -177 -177
-178 -427 0 -428 0 0 555 0 555 83 54 c45 29 201 130 347 223 568 365 864 563
882 590 17 27 18 77 18 1074 l0 1046 -22 32 c-13 17 -88 73 -168 124 -80 52
-318 208 -530 347 -212 139 -436 286 -497 326 l-113 74 0 580 0 580 428 0 427
0 178 -178 178 -178 -17 -44 c-11 -30 -17 -79 -18 -145 -1 -94 1 -104 32 -168
154 -314 585 -308 735 11 29 61 32 76 32 162 -1 75 -5 107 -24 153 -32 82
-123 177 -209 219 -61 30 -74 33 -162 33 -69 0 -108 -5 -142 -19 l-47 -18
-207 211 c-161 165 -214 213 -243 221 -22 6 -214 10 -488 10 l-453 0 0 370 0
370 68 0 c37 0 125 -7 197 -15z m-745 0 c0 -21 -644 -468 -930 -645 -287 -177
-660 -440 -880 -619 -145 -118 -435 -411 -556 -561 -459 -571 -731 -1185 -840
-1900 -32 -206 -44 -609 -25 -833 82 -968 542 -1882 1260 -2507 305 -264 570
-437 1385 -902 105 -59 182 -108 173 -108 -30 0 -327 79 -446 119 -537 180
-1002 452 -1420 832 -530 482 -907 1053 -1131 1714 -82 242 -118 387 -174 696
-51 280 -60 761 -21 1099 57 491 239 1053 492 1515 294 539 715 1023 1198
1376 486 357 1062 596 1665 693 215 35 250 39 250 31z m203 -898 c0 -386 -2
-831 -2 -988 l-1 -286 -192 -126 c-254 -165 -757 -495 -933 -610 -76 -51 -148
-105 -160 -120 -20 -28 -20 -40 -23 -1065 -2 -973 -1 -1039 15 -1072 20 -38
51 -63 210 -165 59 -38 218 -142 353 -230 135 -89 300 -197 368 -240 67 -44
176 -116 243 -160 l120 -80 0 -1039 c-1 -572 -3 -1041 -4 -1043 -6 -5 -237
157 -337 236 -305 243 -625 652 -823 1053 -168 338 -292 729 -347 1092 -43
279 -43 292 -49 1806 -6 1388 -7 1457 -24 1484 -50 76 -187 69 -228 -12 -12
-23 -15 -229 -19 -1263 l-5 -1237 -379 395 c-209 217 -391 399 -404 404 -88
34 -175 -19 -188 -115 -8 -63 -36 -31 706 -796 l277 -285 12 -135 c33 -359 88
-628 192 -948 110 -335 229 -581 433 -896 l78 -119 -69 38 c-407 226 -709 449
-989 729 -514 516 -833 1145 -958 1891 -139 833 56 1737 533 2470 326 501 695
848 1376 1296 143 94 388 255 545 358 242 159 523 360 635 455 17 14 32 25 35
26 3 0 4 -316 3 -703z m1910 -501 c54 -23 80 -59 85 -119 7 -88 -43 -153 -126
-164 -77 -10 -161 56 -164 128 -2 62 2 77 29 110 47 55 113 72 176 45z m857
-1001 c89 -46 105 -168 30 -240 -24 -23 -41 -30 -88 -33 -52 -4 -61 -1 -90 23
-47 40 -65 80 -59 133 6 53 30 88 77 113 42 23 91 24 130 4z m-2323 -194 c153
-99 415 -270 583 -379 l305 -200 3 -931 2 -931 -60 -37 c-34 -21 -157 -101
-275 -178 -386 -252 -677 -440 -701 -453 l-24 -13 0 285 0 284 135 89 c458
299 587 387 601 409 43 65 20 160 -47 196 -72 39 -54 48 -532 -265 -81 -53
-150 -97 -152 -97 -3 0 -5 128 -5 283 l0 284 365 241 c324 214 368 246 381
279 30 70 1 153 -61 179 -73 30 -81 26 -380 -172 -153 -102 -285 -188 -292
-191 -11 -4 -13 82 -13 451 0 495 -1 501 -55 544 -57 45 -142 37 -190 -19
l-25 -31 0 -475 c0 -392 -2 -474 -13 -470 -8 3 -141 89 -296 192 -274 182
-283 187 -325 183 -58 -7 -92 -32 -112 -83 -20 -53 -13 -104 19 -140 12 -14
180 -130 372 -258 l350 -232 3 -284 c2 -241 0 -282 -12 -278 -8 3 -133 84
-278 180 -144 96 -273 179 -285 185 -32 18 -74 14 -110 -8 -41 -25 -60 -55
-68 -105 -12 -80 -3 -88 390 -350 l360 -240 3 -277 c1 -173 -1 -278 -7 -278
-9 0 -206 127 -783 504 l-258 169 0 926 0 926 593 387 c325 213 598 385 604
383 7 -2 137 -85 290 -184z m2326 -3016 c45 -22 70 -60 74 -114 13 -152 -179
-219 -264 -92 -80 119 60 269 190 206z m-846 -882 c48 -22 73 -66 73 -126 0
-83 -48 -137 -130 -145 -59 -5 -115 19 -141 62 -23 38 -25 115 -4 157 34 64
127 88 202 52z"/>
<path d="M9228 6766 c-104 -30 -193 -103 -244 -201 l-29 -55 -475 0 c-449 0
-477 -1 -518 -20 -77 -35 -100 -140 -45 -202 41 -47 53 -48 561 -48 l479 0 24
-52 c34 -73 106 -143 186 -181 63 -30 75 -32 173 -32 93 0 112 4 163 27 76 36
169 129 205 205 24 52 27 70 27 168 0 105 -2 114 -33 177 -39 79 -121 159
-202 197 -66 30 -197 38 -272 17z m193 -269 c19 -12 42 -38 51 -57 50 -98 -21
-210 -132 -210 -115 0 -189 128 -127 221 45 68 143 90 208 46z"/>
</g>
</svg>
