<?xml version="1.0" standalone="no"?>
<!DOCTYPE svg PUBLIC "-//W3C//DTD SVG 20010904//EN"
 "http://www.w3.org/TR/2001/REC-SVG-20010904/DTD/svg10.dtd">
<svg version="1.0" xmlns="http://www.w3.org/2000/svg"
 width="1024.000000pt" height="1536.000000pt" viewBox="0 0 1024.000000 1536.000000"
 preserveAspectRatio="xMidYMid meet">

<g transform="translate(0.000000,1536.000000) scale(0.100000,-0.100000)"
fill="#000000" stroke="none">
<path d="M2675 14518 c-254 -12 -449 -93 -624 -262 -154 -149 -247 -325 -282
-531 -14 -85 -22 -11619 -8 -11780 12 -130 39 -228 99 -350 149 -305 440 -502
788 -534 67 -6 999 -9 2522 -7 2667 3 2453 -3 2641 66 238 86 449 290 545 525
19 46 44 119 57 162 l22 78 3 3979 c2 3956 2 3978 22 4003 20 25 20 42 20 833
0 788 0 808 -20 832 -19 25 -19 48 -23 1099 -3 1072 -3 1074 -25 1157 -88 330
-326 588 -638 690 -133 44 -89 43 -2579 45 -1309 1 -2443 -1 -2520 -5z m1145
-253 c18 -19 24 -41 30 -109 17 -179 113 -299 275 -342 40 -11 234 -14 961
-14 575 0 931 4 965 10 74 14 132 44 184 96 66 67 95 135 105 245 6 83 10 95
34 116 l27 23 575 0 c485 0 587 -2 651 -16 269 -55 496 -279 560 -551 17 -75
18 -292 18 -5943 l0 -5865 -23 -75 c-84 -268 -253 -440 -512 -522 l-75 -23
-2505 0 -2505 0 -70 24 c-303 103 -489 330 -525 636 -14 127 -14 11558 1
11675 12 101 54 229 100 307 75 126 206 238 350 298 123 52 140 53 770 54
l586 1 23 -25z"/>
<path d="M7115 13961 c-73 -19 -121 -59 -97 -83 7 -7 21 -4 45 11 57 35 114
37 171 6 38 -20 51 -23 62 -14 42 34 -105 99 -181 80z"/>
<path d="M2591 13934 c-25 -32 -27 -61 -5 -92 17 -25 71 -31 92 -10 9 9 12 7
12 -8 0 -22 -29 -54 -47 -54 -6 0 -16 7 -23 15 -16 19 -40 19 -40 1 0 -20 39
-46 67 -46 76 0 113 140 53 200 -30 30 -83 27 -109 -6z m91 -29 c8 -19 8 -28
-2 -40 -23 -28 -70 -12 -70 25 0 42 54 54 72 15z"/>
<path d="M2897 13891 c-61 -92 -61 -101 3 -101 43 0 50 -3 50 -20 0 -13 7 -20
20 -20 13 0 20 7 20 20 0 11 7 20 15 20 19 0 19 17 1 27 -10 6 -16 29 -18 73
-3 57 -6 65 -24 68 -16 2 -31 -13 -67 -67z m50 -68 c-3 -2 -17 -3 -31 -1 l-25
3 27 42 27 43 3 -41 c2 -23 1 -43 -1 -46z"/>
<path d="M3075 13939 c-45 -29 -40 -52 8 -34 15 6 17 -1 17 -80 0 -65 3 -86
13 -83 8 3 13 37 15 111 3 117 1 121 -53 86z"/>
<path d="M6820 13855 c0 -85 3 -107 15 -111 41 -16 55 49 39 170 -6 40 -10 46
-30 46 -24 0 -24 -1 -24 -105z"/>
<path d="M7446 13938 c-11 -15 -16 -45 -16 -90 0 -106 3 -108 205 -108 202 0
205 2 205 108 0 113 2 112 -205 112 -168 0 -174 -1 -189 -22z m363 -2 c8 -9
11 -43 9 -93 l-3 -78 -180 0 -180 0 -3 78 c-2 50 1 84 9 93 9 11 47 14 174 14
127 0 165 -3 174 -14z"/>
<path d="M7469 13923 c0 -5 -2 -28 -5 -53 -10 -93 -16 -90 172 -90 l165 0 -3
73 -3 72 -162 3 c-90 1 -163 -1 -164 -5z"/>
<path d="M2772 13903 c5 -26 38 -29 38 -4 0 15 -6 21 -21 21 -14 0 -19 -5 -17
-17z"/>
<path d="M6742 13911 c-9 -5 -12 -30 -10 -87 3 -71 5 -79 23 -79 18 0 20 7 20
84 0 83 -7 99 -33 82z"/>
<path d="M7093 13870 c-36 -21 -40 -32 -20 -48 8 -7 18 -6 31 4 11 8 34 14 51
14 17 0 40 -6 51 -14 13 -10 23 -11 31 -4 22 18 14 39 -22 54 -47 19 -84 18
-122 -6z"/>
<path d="M7850 13855 c0 -34 12 -46 25 -24 9 14 -3 59 -15 59 -6 0 -10 -16
-10 -35z"/>
<path d="M6637 13853 c-13 -13 -7 -90 8 -103 29 -24 45 -4 45 55 0 51 -2 55
-23 55 -13 0 -27 -3 -30 -7z"/>
<path d="M2773 13804 c-9 -23 13 -40 32 -24 12 10 13 16 4 26 -15 18 -28 18
-36 -2z"/>
<path d="M6547 13813 c-11 -10 -8 -61 3 -68 6 -3 19 -3 30 0 15 5 20 15 20 41
0 29 -3 34 -23 34 -13 0 -27 -3 -30 -7z"/>
<path d="M7122 13798 c-9 -9 -8 -16 5 -30 21 -23 36 -23 59 3 16 17 16 22 4
29 -21 13 -54 12 -68 -2z"/>
<path d="M6703 13249 c-18 -5 -33 -14 -33 -20 0 -6 -4 -8 -9 -5 -13 9 -102
-64 -95 -76 5 -7 18 1 36 20 15 18 29 32 30 32 2 -1 26 9 53 22 49 23 58 23
475 28 l425 6 -425 1 c-234 0 -440 -3 -457 -8z m-103 -73 c0 -2 -8 -10 -17
-17 -16 -13 -17 -12 -4 4 13 16 21 21 21 13z"/>
<path d="M7590 13253 c0 -7 37 -22 109 -44 7 -2 35 -26 61 -54 29 -30 48 -43
46 -33 -3 23 -46 69 -58 62 -4 -3 -11 2 -14 11 -7 17 -64 51 -64 38 0 -5 -4
-3 -8 3 -9 14 -72 29 -72 17z"/>
<path d="M2878 13233 c7 -3 16 -2 19 1 4 3 -2 6 -13 5 -11 0 -14 -3 -6 -6z"/>
<path d="M2828 13223 c7 -3 16 -2 19 1 4 3 -2 6 -13 5 -11 0 -14 -3 -6 -6z"/>
<path d="M2700 13195 c-47 -18 -27 -18 30 -1 25 8 36 15 25 15 -11 0 -36 -7
-55 -14z"/>
<path d="M2572 13145 c-66 -34 -172 -130 -172 -157 0 -5 18 13 39 40 47 59 79
83 163 122 35 16 58 29 52 30 -6 0 -43 -16 -82 -35z"/>
<path d="M2913 13085 c0 -27 2 -38 4 -22 2 15 2 37 0 50 -2 12 -4 0 -4 -28z"/>
<path d="M6529 13113 c-13 -17 -13 -17 6 -3 11 8 22 16 24 17 2 2 0 3 -6 3 -6
0 -17 -8 -24 -17z"/>
<path d="M6857 13094 c3 -7 10 -14 17 -14 6 0 4 -4 -4 -10 -8 -5 -11 -12 -7
-17 5 -4 12 -2 16 6 6 10 19 5 55 -20 l46 -33 0 -91 c0 -87 -8 -115 -34 -115
-6 0 -5 5 1 11 6 6 9 17 6 24 -3 10 -17 5 -49 -17 -25 -17 -43 -32 -40 -35 2
-2 16 3 30 12 42 28 54 6 15 -27 -26 -23 -20 -21 23 9 l58 38 0 96 0 97 -69
50 c-39 28 -67 44 -64 36z"/>
<path d="M7815 13101 c-6 -11 13 -26 22 -17 4 3 1 6 -6 6 -7 0 -9 5 -6 10 3 6
4 10 1 10 -3 0 -7 -4 -11 -9z"/>
<path d="M6772 13054 l-62 -46 0 -96 0 -97 43 -28 c23 -15 53 -35 67 -43 l25
-16 -23 21 c-13 11 -35 29 -49 39 l-25 19 38 -3 c38 -3 38 -2 17 13 -20 14
-23 24 -23 90 0 59 4 78 18 91 9 10 13 14 8 10 -15 -12 -24 -10 -28 7 -2 12
-7 11 -28 -5 -23 -17 -24 -21 -13 -51 8 -20 9 -37 3 -43 -5 -6 -10 -32 -13
-56 -2 -25 -4 -2 -5 50 l-2 95 32 22 c21 15 34 19 39 12 5 -8 8 -8 13 0 4 6 2
11 -5 11 -7 0 -9 3 -6 6 4 4 13 2 20 -4 8 -7 17 -9 21 -5 4 4 4 -1 0 -11 -5
-14 -4 -17 4 -12 7 4 28 -2 48 -14 19 -12 37 -20 39 -18 2 2 -14 15 -36 28
-27 17 -38 30 -35 42 2 10 -2 22 -8 27 -9 8 -30 -2 -74 -35z"/>
<path d="M6492 13038 c-17 -56 -20 -78 -12 -78 5 0 11 19 15 43 4 23 12 45 17
48 7 4 7 9 0 13 -6 3 -15 -8 -20 -26z"/>
<path d="M7847 13044 c-3 -3 -2 -17 4 -31 5 -13 10 -59 10 -101 l2 -77 9 70
c7 51 6 78 -3 100 -7 17 -12 33 -11 38 2 9 -2 9 -11 1z"/>
<path d="M2642 13013 c-17 -12 -26 -13 -34 -5 -13 13 -40 -9 -36 -30 2 -7 -3
-12 -9 -10 -7 1 -12 -1 -11 -5 2 -5 -22 -33 -52 -63 -56 -56 -120 -144 -120
-164 1 -6 10 7 21 28 12 21 60 78 107 125 47 47 86 89 86 93 1 3 5 10 10 15 5
5 6 3 2 -4 -10 -18 -4 -16 45 12 24 14 37 25 29 24 -8 0 -25 -7 -38 -16z"/>
<path d="M2901 13014 c0 -11 3 -14 6 -6 3 7 2 16 -1 19 -3 4 -6 -2 -5 -13z"/>
<path d="M7173 13008 c-43 -26 -45 -52 -3 -43 l30 7 0 -86 c0 -80 1 -86 20
-86 20 0 21 5 18 112 -3 126 -8 132 -65 96z"/>
<path d="M7302 13007 c-12 -13 -22 -29 -22 -35 0 -20 30 -14 49 9 15 18 21 20
39 10 35 -19 26 -48 -33 -105 -77 -73 -74 -86 20 -86 68 0 75 2 75 20 0 17 -7
20 -46 20 l-47 0 47 43 c36 34 46 50 46 75 0 67 -82 98 -128 49z"/>
<path d="M7496 13007 c-30 -30 -42 -95 -26 -142 33 -99 153 -82 167 23 15 109
-75 185 -141 119z m73 -17 c38 -20 36 -131 -1 -151 -51 -27 -87 92 -43 141 21
23 21 23 44 10z"/>
<path d="M2602 12922 c-56 -56 -112 -124 -132 -160 -20 -34 -42 -62 -51 -62
-9 0 -21 -12 -28 -26 -16 -37 -6 -42 13 -7 l16 28 -7 -30 c-3 -16 -12 -44 -20
-62 -23 -55 -13 -51 15 7 l27 55 101 6 c121 6 185 33 257 106 42 42 94 129 84
139 -2 2 -14 -19 -27 -46 -29 -61 -104 -134 -167 -162 -31 -14 -77 -22 -137
-26 -80 -4 -89 -3 -83 12 4 9 2 16 -4 16 -6 0 -6 7 1 20 6 11 16 17 22 14 7
-4 8 -3 4 5 -8 12 14 48 77 124 30 37 42 45 49 35 7 -10 8 -9 4 4 -3 12 7 27
33 47 21 17 41 28 45 26 3 -3 4 -2 1 2 -3 3 0 12 6 20 6 7 8 13 5 13 -4 0 -51
-44 -104 -98z"/>
<path d="M2886 12965 c-3 -9 -6 -22 -5 -28 0 -7 5 -1 10 12 5 13 8 26 5 28 -2
2 -6 -3 -10 -12z"/>
<path d="M2376 12935 c-3 -9 -6 -26 -5 -38 1 -14 4 -9 9 13 9 37 7 52 -4 25z"/>
<path d="M6477 12943 c-4 -3 -7 -11 -7 -17 0 -6 5 -5 12 2 6 6 9 14 7 17 -3 3
-9 2 -12 -2z"/>
<path d="M6481 12874 c0 -11 3 -14 6 -6 3 7 2 16 -1 19 -3 4 -6 -2 -5 -13z"/>
<path d="M6931 12874 c0 -11 3 -14 6 -6 3 7 2 16 -1 19 -3 4 -6 -2 -5 -13z"/>
<path d="M2363 12835 c0 -22 2 -30 4 -17 2 12 2 30 0 40 -3 9 -5 -1 -4 -23z"/>
<path d="M6480 12814 c0 -8 5 -12 10 -9 6 3 10 10 10 16 0 5 -4 9 -10 9 -5 0
-10 -7 -10 -16z"/>
<path d="M7850 12815 c0 -8 5 -15 10 -15 6 0 10 7 10 15 0 8 -4 15 -10 15 -5
0 -10 -7 -10 -15z"/>
<path d="M6510 12741 c0 -16 102 -121 111 -115 10 6 2 26 -9 21 -7 -3 -61 49
-62 58 0 10 -40 45 -40 36z"/>
<path d="M7761 12673 c-31 -32 -44 -50 -30 -43 30 15 78 59 90 83 17 31 -5 16
-60 -40z"/>
<path d="M2366 12615 c-3 -9 -6 -24 -5 -33 0 -9 5 -4 10 12 9 32 6 48 -5 21z"/>
<path d="M6630 12614 c0 -2 9 -8 19 -14 14 -7 22 -7 27 2 4 7 3 8 -4 4 -7 -4
-12 -3 -12 2 0 5 -7 9 -15 9 -8 0 -15 -2 -15 -3z"/>
<path d="M7640 12592 c-31 -15 -87 -17 -464 -19 -236 -1 -431 -5 -434 -8 -3
-3 198 -4 448 -3 353 2 454 6 458 16 2 6 8 10 13 6 5 -3 9 0 9 6 0 6 5 8 12 4
7 -4 8 -3 4 4 -4 7 -8 12 -9 11 -1 0 -18 -8 -37 -17z"/>
<path d="M6685 12590 c-3 -5 -1 -10 4 -10 6 0 11 5 11 10 0 6 -2 10 -4 10 -3
0 -8 -4 -11 -10z"/>
<path d="M6710 12580 c0 -5 5 -10 10 -10 6 0 10 5 10 10 0 6 -4 10 -10 10 -5
0 -10 -4 -10 -10z"/>
<path d="M5275 12096 c-20 -15 -15 -43 10 -52 18 -7 45 12 45 32 0 22 -35 35
-55 20z"/>
<path d="M4110 12087 c-36 -13 -60 -46 -60 -85 0 -29 40 -69 77 -77 46 -10 73
-24 79 -40 16 -42 -74 -65 -98 -25 -16 25 -68 28 -68 4 0 -8 13 -29 29 -45 26
-25 37 -29 86 -29 49 0 60 4 86 29 57 57 32 120 -61 150 -58 19 -82 43 -63 62
17 17 61 14 82 -5 20 -18 61 -22 61 -5 0 24 -24 52 -55 65 -40 17 -49 17 -95
1z"/>
<path d="M4347 11999 c-43 -25 -60 -106 -32 -159 19 -37 43 -50 95 -50 33 0
48 6 73 32 l32 32 -30 8 c-22 5 -32 4 -38 -7 -10 -18 -58 -20 -75 -3 -16 16
-16 80 0 96 17 17 65 15 76 -4 7 -13 15 -15 38 -7 l29 10 -32 31 c-26 26 -39
32 -75 32 -24 0 -51 -5 -61 -11z"/>
<path d="M4566 11989 c-15 -12 -25 -26 -23 -32 5 -16 44 -18 57 -2 16 19 44
19 60 0 18 -22 5 -32 -47 -38 -74 -8 -107 -63 -63 -107 23 -23 88 -28 108 -8
9 9 12 9 12 0 0 -7 11 -12 25 -12 25 0 25 1 25 88 0 75 -3 92 -20 110 -28 30
-97 30 -134 1z m101 -116 c6 -17 -28 -44 -51 -41 -30 4 -28 40 4 49 30 8 43 6
47 -8z"/>
<path d="M4770 11899 l0 -110 28 3 c26 3 27 5 30 73 3 78 14 97 51 93 25 -3
26 -6 31 -83 5 -78 6 -80 33 -83 l27 -3 0 84 c0 104 -19 137 -79 137 -20 0
-42 -5 -49 -12 -9 -9 -12 -9 -12 0 0 7 -13 12 -30 12 l-30 0 0 -111z"/>
<path d="M5020 11900 l0 -110 25 0 c24 0 25 3 25 59 0 78 13 111 43 111 38 0
47 -19 47 -97 0 -70 1 -73 24 -73 20 0 24 6 28 43 10 77 0 140 -23 160 -25 20
-79 23 -98 5 -11 -10 -14 -10 -18 0 -3 6 -16 12 -29 12 -24 0 -24 0 -24 -110z"/>
<path d="M5270 11900 l0 -110 25 0 25 0 0 110 0 110 -25 0 -25 0 0 -110z"/>
<path d="M5374 11997 c-3 -8 -3 -56 -2 -108 l3 -94 28 -3 27 -3 0 73 c0 79 9
98 47 98 31 0 43 -28 43 -104 0 -64 1 -66 25 -66 25 0 25 1 25 90 0 77 -3 93
-20 110 -22 22 -70 26 -101 10 -13 -7 -19 -7 -19 0 0 15 -50 12 -56 -3z"/>
<path d="M5639 11981 c-24 -24 -29 -38 -29 -76 0 -38 5 -52 29 -76 31 -31 75
-38 112 -19 16 9 19 7 19 -9 0 -45 -56 -66 -91 -35 -22 20 -62 10 -57 -14 2
-10 20 -25 40 -35 46 -22 101 -14 135 19 22 22 23 31 23 149 l0 125 -25 0
c-14 0 -25 -5 -25 -10 0 -7 -6 -7 -19 0 -37 19 -81 12 -112 -19z m120 -35 c21
-25 9 -79 -21 -95 -24 -14 -28 -14 -47 3 -23 21 -28 75 -9 94 16 16 63 15 77
-2z"/>
<path d="M5880 11845 c-18 -22 -1 -50 31 -50 20 0 24 5 24 30 0 23 -5 31 -21
33 -11 2 -27 -4 -34 -13z"/>
<path d="M6002 11851 c-8 -4 -12 -19 -10 -32 4 -29 45 -34 61 -7 19 30 -19 60
-51 39z"/>
<path d="M6122 11851 c-8 -4 -12 -19 -10 -32 4 -29 45 -34 61 -7 19 30 -19 60
-51 39z"/>
<path d="M3952 11454 c4 -21 22 -23 26 -1 2 10 -3 17 -13 17 -10 0 -15 -6 -13
-16z"/>
<path d="M4677 11463 c-4 -3 -7 -51 -7 -105 0 -80 3 -98 15 -98 12 0 15 18 15
105 0 96 -5 117 -23 98z"/>
<path d="M4740 11449 c0 -24 23 -21 28 4 2 10 -3 17 -12 17 -10 0 -16 -9 -16
-21z"/>
<path d="M5670 11450 c0 -13 5 -20 13 -17 6 2 12 10 12 17 0 7 -6 15 -12 18
-8 2 -13 -5 -13 -18z"/>
<path d="M5840 11431 c0 -45 -1 -47 -30 -29 -16 10 -24 9 -47 -8 -33 -25 -42
-74 -19 -109 14 -21 23 -24 71 -23 l56 2 -3 99 c-2 69 -7 102 -15 105 -9 2
-13 -9 -13 -37z m-11 -65 c31 -37 -9 -103 -46 -80 -21 13 -27 36 -19 70 7 28
46 33 65 10z"/>
<path d="M6324 11459 c-10 -17 13 -36 27 -22 12 12 4 33 -11 33 -5 0 -12 -5
-16 -11z"/>
<path d="M6414 11456 c-3 -8 -7 -22 -8 -31 -1 -9 -9 -21 -17 -26 -11 -7 -12
-11 -1 -18 8 -5 14 -30 15 -65 1 -37 6 -56 15 -56 8 0 12 19 12 60 0 47 3 60
15 60 8 0 15 4 15 9 0 5 -7 11 -15 15 -22 8 -18 37 5 43 28 8 25 23 -5 23 -14
0 -28 -6 -31 -14z"/>
<path d="M3630 11360 c0 -56 4 -100 9 -100 6 0 11 17 13 38 3 35 5 37 43 42
55 8 65 16 65 55 0 47 -22 65 -81 65 l-49 0 0 -100z m94 61 c14 -16 15 -23 6
-41 -16 -31 -74 -25 -78 8 -2 13 -1 30 2 38 8 20 50 17 70 -5z"/>
<path d="M4190 11425 c0 -9 -7 -18 -15 -21 -19 -8 -20 -24 0 -24 10 0 15 -15
17 -57 3 -55 4 -58 31 -61 31 -4 37 13 7 21 -16 4 -20 14 -20 47 0 33 4 43 20
47 23 6 27 23 6 23 -7 0 -16 9 -19 20 -6 23 -27 27 -27 5z"/>
<path d="M4510 11420 c0 -12 -7 -20 -17 -20 -17 -1 -17 -1 -1 -13 11 -9 18
-31 20 -68 3 -51 5 -54 31 -57 15 -2 27 1 27 7 0 6 -7 11 -15 11 -11 0 -15 12
-15 50 0 38 4 50 15 50 8 0 15 5 15 10 0 6 -7 10 -15 10 -8 0 -15 9 -15 20 0
11 -7 20 -15 20 -8 0 -15 -9 -15 -20z"/>
<path d="M4820 11425 c0 -9 -7 -18 -16 -22 -15 -6 -15 -7 -1 -18 10 -7 17 -31
19 -66 3 -51 5 -54 31 -57 15 -2 27 1 27 7 0 6 -7 11 -15 11 -11 0 -15 12 -15
50 0 38 4 50 15 50 22 0 18 17 -5 23 -13 3 -18 10 -14 21 4 11 1 16 -10 16 -9
0 -16 -7 -16 -15z"/>
<path d="M4920 11421 c0 -11 -6 -22 -12 -25 -10 -5 -10 -7 0 -12 7 -3 12 -24
12 -49 0 -24 3 -50 6 -59 7 -17 54 -22 54 -6 0 6 -7 10 -15 10 -11 0 -15 12
-15 50 0 38 4 50 15 50 8 0 15 5 15 10 0 6 -7 10 -15 10 -8 0 -15 9 -15 20 0
11 -7 20 -15 20 -8 0 -15 -9 -15 -19z"/>
<path d="M5350 11425 c0 -9 -7 -18 -15 -21 -19 -8 -20 -24 0 -24 10 0 15 -15
17 -57 3 -55 4 -58 31 -61 31 -4 37 13 7 21 -16 4 -20 14 -20 51 0 39 3 46 20
46 11 0 20 5 20 10 0 6 -7 10 -16 10 -9 0 -18 9 -21 20 -6 23 -23 27 -23 5z"/>
<path d="M6222 11412 c-8 -17 -9 -28 -2 -30 5 -2 10 -25 10 -51 0 -53 13 -71
50 -70 l25 0 -22 16 c-18 12 -23 25 -23 58 0 35 4 44 23 50 l22 8 -22 4 c-15
3 -23 12 -23 24 0 28 -23 23 -38 -9z"/>
<path d="M3823 11400 c-44 -18 -57 -86 -23 -120 28 -28 84 -27 104 2 23 33 20
75 -9 103 -26 27 -37 29 -72 15z m56 -34 c31 -37 -9 -103 -46 -80 -37 23 -24
94 17 94 10 0 23 -6 29 -14z"/>
<path d="M3956 11403 c-3 -3 -6 -37 -6 -75 0 -54 3 -68 15 -68 12 0 15 14 15
69 0 65 -8 90 -24 74z"/>
<path d="M4065 11400 c-4 -6 -15 -8 -26 -5 -17 6 -19 1 -19 -64 0 -53 3 -71
14 -71 8 0 12 8 9 23 -3 13 -1 39 4 58 7 27 14 34 34 34 22 0 24 -4 27 -57 2
-43 7 -58 17 -58 22 0 21 113 -1 134 -18 18 -50 21 -59 6z"/>
<path d="M4372 11394 c-25 -17 -29 -34 -7 -34 8 0 15 5 15 10 0 15 47 12 53
-4 4 -10 -7 -17 -38 -25 -46 -12 -61 -31 -45 -62 9 -15 20 -19 60 -17 l50 2 0
57 c0 82 -35 111 -88 73z m68 -82 c0 -14 -23 -32 -41 -32 -21 0 -33 16 -24 30
7 12 65 14 65 2z"/>
<path d="M4746 11403 c-3 -3 -6 -37 -6 -75 0 -54 3 -68 15 -68 12 0 15 14 15
69 0 65 -8 90 -24 74z"/>
<path d="M5025 11385 c-29 -28 -32 -70 -9 -103 24 -35 114 -27 114 10 0 4 -7
8 -15 8 -8 0 -15 -4 -15 -10 0 -15 -46 -12 -60 5 -19 23 -2 35 50 35 l49 0
-11 30 c-18 54 -64 65 -103 25z m75 -20 c11 -13 7 -15 -30 -15 -37 0 -41 2
-30 15 7 8 20 15 30 15 10 0 23 -7 30 -15z"/>
<path d="M5210 11401 c-8 -6 -18 -7 -23 -4 -16 10 -27 -21 -27 -79 0 -44 4
-58 14 -58 11 0 16 15 18 53 2 43 7 54 26 62 12 5 22 15 22 22 0 15 -9 16 -30
4z"/>
<path d="M5456 11389 c-32 -25 -37 -86 -8 -112 23 -21 71 -22 97 -3 29 21 27
92 -4 117 -30 24 -52 24 -85 -2z m73 -23 c30 -36 -9 -104 -46 -80 -28 18 -35
37 -24 67 12 30 50 37 70 13z"/>
<path d="M5921 11384 c-44 -55 -17 -124 48 -124 22 0 44 6 51 15 18 22 4 31
-24 16 -32 -17 -61 -10 -61 14 0 17 7 20 48 19 43 0 47 2 47 23 0 30 -34 63
-64 63 -15 0 -33 -11 -45 -26z m77 -21 c2 -9 -8 -13 -32 -13 -34 0 -44 8 -29
24 11 11 56 2 61 -11z"/>
<path d="M6111 11401 c-7 -5 -22 -6 -32 -4 -17 5 -19 -1 -19 -66 0 -55 3 -71
15 -71 10 0 15 15 17 58 3 56 3 57 33 57 30 0 30 -1 33 -57 2 -45 7 -58 19
-58 13 0 15 10 10 62 -7 75 -35 105 -76 79z"/>
<path d="M6587 11390 c-9 -14 -17 -28 -17 -32 0 -3 -5 -19 -11 -35 l-11 -28
-20 53 c-11 29 -26 52 -34 52 -18 0 -19 3 16 -75 l30 -66 -25 -25 c-30 -30
-31 -34 -6 -34 26 0 34 13 71 108 33 86 36 123 7 82z"/>
<path d="M5670 11330 c0 -56 3 -70 15 -70 12 0 15 14 15 70 0 56 -3 70 -15 70
-12 0 -15 -14 -15 -70z"/>
<path d="M6330 11330 c0 -40 4 -70 10 -70 6 0 10 30 10 70 0 40 -4 70 -10 70
-6 0 -10 -30 -10 -70z"/>
<path d="M6066 11093 c-3 -3 -6 -24 -6 -47 0 -31 -3 -37 -12 -28 -20 20 -65
14 -82 -10 -22 -31 -20 -91 2 -111 21 -19 67 -23 78 -6 5 8 9 8 14 -1 19 -31
30 6 30 100 0 91 -7 120 -24 103z m-22 -99 c30 -29 10 -94 -28 -94 -20 0 -38
27 -38 55 0 48 36 70 66 39z"/>
<path d="M4460 11048 c0 -33 -3 -39 -12 -30 -35 35 -98 -5 -98 -63 0 -58 63
-98 98 -63 9 9 12 9 12 0 0 -7 7 -12 15 -12 12 0 15 18 15 105 0 87 -3 105
-15 105 -11 0 -15 -11 -15 -42z m-12 -50 c7 -7 12 -27 12 -45 0 -26 -6 -36
-25 -45 -33 -15 -55 4 -55 46 0 35 15 56 40 56 9 0 21 -5 28 -12z"/>
<path d="M4055 11014 c-22 -22 -11 -30 19 -14 28 15 56 8 56 -15 0 -9 -9 -15
-26 -15 -38 0 -64 -18 -64 -44 0 -33 18 -44 73 -44 l47 1 0 57 c0 42 -5 61
-18 73 -24 22 -66 22 -87 1z m73 -80 c-5 -27 -34 -40 -52 -25 -21 18 -3 41 31
41 17 0 24 -5 21 -16z"/>
<path d="M4197 11023 c-2 -1 -2 -32 -1 -70 3 -78 24 -102 24 -26 0 60 20 93
47 77 13 -8 19 -26 21 -68 2 -41 7 -56 17 -56 12 0 15 14 15 59 0 75 -14 91
-76 89 -25 -2 -46 -3 -47 -5z"/>
<path d="M4610 11008 c-30 -32 -22 -96 14 -120 18 -12 61 -9 82 6 24 18 10 34
-16 18 -28 -17 -48 -15 -60 7 -15 30 -14 31 40 31 46 0 50 2 50 23 0 53 -72
76 -110 35z m76 -15 c17 -17 16 -18 -20 -21 -45 -4 -54 2 -36 23 16 20 35 19
56 -2z"/>
<path d="M4773 11023 c-7 -2 -13 -11 -13 -19 0 -17 5 -17 29 -2 15 9 23 9 35
-1 23 -19 20 -31 -10 -31 -38 0 -64 -18 -64 -44 0 -34 21 -46 71 -43 l44 3 3
48 c5 77 -35 114 -95 89z m65 -89 c-5 -27 -34 -40 -52 -25 -21 18 -3 41 31 41
17 0 24 -5 21 -16z"/>
<path d="M4907 11023 c-2 -5 -3 -37 -3 -72 1 -82 23 -97 28 -19 2 44 7 55 26
63 24 10 30 35 9 35 -7 0 -18 -5 -25 -12 -9 -9 -12 -9 -12 0 0 13 -16 16 -23
5z"/>
<path d="M5010 10953 c0 -42 4 -73 10 -73 6 0 10 22 10 48 0 36 5 54 20 67 32
29 49 13 52 -51 4 -79 28 -87 28 -9 0 82 -10 95 -70 93 l-50 -2 0 -73z"/>
<path d="M5240 10954 c0 -56 3 -75 13 -72 7 3 13 26 15 54 4 53 17 78 39 70 7
-3 13 1 13 9 0 18 -21 20 -38 3 -9 -9 -12 -9 -12 0 0 7 -7 12 -15 12 -12 0
-15 -15 -15 -76z"/>
<path d="M5350 11008 c-43 -47 -13 -128 48 -128 30 0 71 33 54 44 -5 3 -15 -1
-22 -9 -15 -18 -42 -19 -58 -3 -26 26 -13 38 38 38 46 0 50 2 50 23 0 53 -72
76 -110 35z m80 -18 c10 -18 8 -20 -30 -20 -41 0 -49 7 -28 28 18 18 46 14 58
-8z"/>
<path d="M5480 11024 c0 -28 45 -144 56 -144 12 0 34 56 34 88 0 28 18 9 31
-35 21 -68 40 -62 62 20 10 38 16 71 13 74 -11 11 -25 -9 -31 -47 -10 -57 -21
-57 -35 1 -16 64 -37 62 -58 -6 l-15 -50 -16 53 c-9 28 -21 52 -28 52 -7 0
-13 -3 -13 -6z"/>
<path d="M5720 11015 c-17 -21 -7 -29 18 -14 23 14 52 6 52 -16 0 -9 -9 -15
-26 -15 -38 0 -64 -18 -64 -44 0 -34 19 -45 73 -43 l47 2 0 57 c0 38 -5 62
-16 72 -20 20 -68 21 -84 1z m68 -81 c-5 -25 -35 -41 -49 -27 -18 18 -3 43 26
43 19 0 26 -5 23 -16z"/>
<path d="M5860 10955 c0 -43 4 -75 10 -75 6 0 10 18 10 39 0 53 8 71 36 82 13
4 24 13 24 19 0 14 -33 13 -48 -2 -9 -9 -12 -9 -12 0 0 7 -4 12 -10 12 -6 0
-10 -32 -10 -75z"/>
<path d="M6132 11018 c-28 -28 -9 -61 41 -73 27 -7 36 -28 16 -41 -6 -3 -22
-1 -35 7 -30 16 -46 2 -20 -17 36 -26 96 -10 96 26 0 21 -35 50 -62 50 -11 0
-18 8 -18 20 0 21 33 29 45 10 9 -15 25 -12 25 4 0 26 -66 36 -88 14z"/>
<path d="M2940 10251 c-103 -21 -184 -82 -230 -173 l-30 -61 0 -313 c0 -172 3
-315 8 -317 4 -3 7 142 7 321 l0 327 27 47 c39 65 84 107 148 137 54 25 62 25
335 31 l280 6 -255 1 c-140 0 -271 -2 -290 -6z"/>
<path d="M6878 10253 c67 -2 177 -2 245 0 67 1 12 3 -123 3 -135 0 -190 -2
-122 -3z"/>
<path d="M3496 10240 c7 -8 14 -24 17 -35 4 -19 5 -19 6 1 0 12 -7 28 -16 35
-16 12 -17 12 -7 -1z"/>
<path d="M6730 10236 c-16 -21 -9 -57 15 -70 18 -10 18 -10 3 3 -21 16 -24 51
-6 69 7 7 9 12 6 12 -3 0 -11 -7 -18 -14z"/>
<path d="M7283 10243 c9 -2 23 -2 30 0 6 3 -1 5 -18 5 -16 0 -22 -2 -12 -5z"/>
<path d="M7345 10230 c27 -12 43 -12 25 0 -8 5 -22 9 -30 9 -10 0 -8 -3 5 -9z"/>
<path d="M7437 10184 c18 -13 44 -39 58 -57 15 -18 22 -23 16 -11 -11 22 -86
94 -99 94 -4 0 7 -12 25 -26z"/>
<path d="M3023 10163 c9 -2 25 -2 35 0 9 3 1 5 -18 5 -19 0 -27 -2 -17 -5z"/>
<path d="M3238 10163 c39 -2 105 -2 145 0 39 1 7 3 -73 3 -80 0 -112 -2 -72
-3z"/>
<path d="M7190 10161 c14 -5 45 -9 70 -10 62 -1 147 -52 177 -106 25 -44 32
-41 8 4 -34 66 -114 110 -215 116 -45 3 -57 2 -40 -4z"/>
<path d="M2915 10149 c-64 -35 -97 -66 -120 -112 -14 -28 -25 -58 -25 -66 1
-9 10 6 20 33 30 76 88 128 165 147 27 6 28 7 5 8 -14 0 -34 -5 -45 -10z"/>
<path d="M7547 10015 c3 -22 7 -42 9 -44 8 -9 2 45 -6 64 -7 14 -8 8 -3 -20z"/>
<path d="M7461 9984 c0 -11 3 -14 6 -6 3 7 2 16 -1 19 -3 4 -6 -2 -5 -13z"/>
<path d="M7474 9680 c0 -157 2 -221 3 -142 2 78 2 206 0 285 -1 78 -3 14 -3
-143z"/>
<path d="M2771 9934 c0 -11 3 -14 6 -6 3 7 2 16 -1 19 -3 4 -6 -2 -5 -13z"/>
<path d="M7564 9825 c0 -71 1 -99 3 -62 2 37 2 96 0 130 -2 34 -3 4 -3 -68z"/>
<path d="M2774 9710 c0 -58 1 -81 3 -52 2 28 2 76 0 105 -2 28 -3 5 -3 -53z"/>
<path d="M2772 9480 c0 -19 2 -27 5 -17 2 9 2 25 0 35 -3 9 -5 1 -5 -18z"/>
<path d="M2756 9393 c-6 -14 -5 -15 5 -6 7 7 10 15 7 18 -3 3 -9 -2 -12 -12z"/>
<path d="M7545 9391 c-6 -5 -19 -11 -30 -14 -19 -4 -19 -5 1 -6 12 0 27 6 34
14 14 16 10 20 -5 6z"/>
<path d="M6555 9330 c28 -4 59 -11 70 -15 14 -4 12 -1 -5 9 -14 8 -45 15 -70
14 l-45 0 50 -8z"/>
<path d="M6470 9308 c-29 -31 -83 -98 -78 -98 2 0 27 27 56 60 51 57 66 85 22
38z"/>
<path d="M6664 9298 c10 -7 54 -39 97 -70 44 -32 79 -56 79 -53 0 7 -142 111
-170 124 -21 10 -22 9 -6 -1z"/>
<path d="M3890 9200 c-6 -11 -8 -20 -6 -20 3 0 10 9 16 20 6 11 8 20 6 20 -3
0 -10 -9 -16 -20z"/>
<path d="M6369 9183 c-13 -16 -12 -17 4 -4 9 7 17 15 17 17 0 8 -8 3 -21 -13z"/>
<path d="M3850 9129 c-12 -23 -20 -43 -18 -45 3 -2 14 17 26 41 27 56 20 60
-8 4z"/>
<path d="M3911 9154 c0 -11 3 -14 6 -6 3 7 2 16 -1 19 -3 4 -6 -2 -5 -13z"/>
<path d="M6922 9093 c52 -56 81 -95 89 -123 15 -49 7 -67 -74 -169 -27 -34
-46 -61 -43 -61 10 0 127 155 132 177 12 45 -22 105 -103 183 l-77 75 76 -82z"/>
<path d="M3509 9103 c46 -93 88 -195 96 -233 5 -19 10 -30 12 -24 5 16 -31
120 -67 196 -17 34 -28 63 -26 65 6 6 68 -74 111 -140 41 -66 62 -111 81 -177
7 -27 13 -36 13 -22 3 71 -177 367 -210 346 -5 -3 -9 1 -9 9 0 8 -7 20 -15 27
-8 6 -1 -14 14 -47z"/>
<path d="M3902 9110 c0 -14 2 -19 5 -12 2 6 2 18 0 25 -3 6 -5 1 -5 -13z"/>
<path d="M6390 9127 c3 -3 46 -32 95 -65 114 -77 267 -204 340 -285 32 -34 48
-48 37 -32 -40 60 -210 212 -338 303 -61 43 -149 95 -134 79z"/>
<path d="M6236 9098 c-13 -18 -13 -25 -3 -35 14 -14 87 -46 87 -38 0 3 -18 12
-41 21 -31 13 -39 21 -37 38 2 15 10 21 30 21 14 -1 24 3 22 7 -10 16 -43 8
-58 -14z"/>
<path d="M6311 9097 c17 -14 79 -48 79 -44 0 7 -65 47 -75 47 -5 0 -6 -1 -4
-3z"/>
<path d="M3892 9060 c0 -14 2 -19 5 -12 2 6 2 18 0 25 -3 6 -5 1 -5 -13z"/>
<path d="M3801 9009 c-12 -35 -21 -70 -21 -78 1 -9 12 18 25 59 13 41 23 76
21 78 -2 2 -13 -25 -25 -59z"/>
<path d="M6400 9046 c0 -3 9 -10 20 -16 11 -6 20 -8 20 -6 0 3 -9 10 -20 16
-11 6 -20 8 -20 6z"/>
<path d="M3876 8998 c-4 -18 -9 -69 -11 -113 l-4 -80 8 71 c5 39 12 89 16 112
8 49 1 57 -9 10z"/>
<path d="M4868 9013 c-60 -3 -78 -7 -78 -18 0 -12 15 -15 68 -14 106 2 185 13
190 27 4 12 0 13 -180 5z"/>
<path d="M6345 9005 c30 -25 59 -39 51 -26 -4 6 -22 18 -39 27 -30 14 -31 14
-12 -1z"/>
<path d="M6450 9016 c0 -2 14 -14 30 -26 17 -12 30 -19 30 -16 0 2 -13 14 -30
26 -16 12 -30 19 -30 16z"/>
<path d="M4122 8963 c-6 -3 -10 -8 -8 -12 3 -4 -13 -29 -35 -56 -36 -43 -76
-106 -52 -80 26 27 115 146 112 149 -2 2 -10 1 -17 -1z"/>
<path d="M6410 8967 c0 -3 17 -17 37 -33 20 -15 33 -23 29 -16 -8 13 -66 56
-66 49z"/>
<path d="M6520 8966 c0 -2 8 -10 18 -17 15 -13 16 -12 3 4 -13 16 -21 21 -21
13z"/>
<path d="M4074 8934 c-18 -14 -18 -15 4 -4 12 6 22 13 22 15 0 8 -5 6 -26 -11z"/>
<path d="M6320 8938 c1 -16 18 -45 46 -81 37 -46 36 -29 -1 19 -20 26 -34 49
-31 51 2 2 24 -8 48 -23 23 -15 38 -21 31 -13 -21 25 -93 62 -93 47z"/>
<path d="M5848 8933 c6 -2 18 -2 25 0 6 3 1 5 -13 5 -14 0 -19 -2 -12 -5z"/>
<path d="M6567 8929 c7 -8 46 -44 87 -79 41 -35 72 -68 69 -73 -3 -6 -1 -7 5
-4 12 8 100 -86 113 -122 5 -13 12 -21 16 -18 16 17 -104 149 -226 249 -42 34
-71 56 -64 47z"/>
<path d="M5788 8923 c6 -2 18 -2 25 0 6 3 1 5 -13 5 -14 0 -19 -2 -12 -5z"/>
<path d="M3991 8869 c-52 -51 -111 -141 -111 -169 0 -8 11 9 25 38 14 30 53
82 86 118 74 76 74 86 0 13z"/>
<path d="M5738 8913 c6 -2 18 -2 25 0 6 3 1 5 -13 5 -14 0 -19 -2 -12 -5z"/>
<path d="M5932 8913 c37 -2 100 -2 140 0 40 1 10 3 -67 3 -77 0 -110 -1 -73
-3z"/>
<path d="M3765 8868 c-3 -24 -9 -59 -12 -78 -6 -35 5 -39 11 -4 10 53 17 124
13 124 -3 0 -8 -19 -12 -42z"/>
<path d="M5767 8900 c-20 -4 -40 -10 -44 -14 -6 -6 27 -1 97 14 46 10 0 11
-53 0z"/>
<path d="M6550 8853 c36 -32 101 -92 146 -133 59 -55 54 -49 -20 25 -56 55
-121 115 -146 133 -30 22 -23 14 20 -25z"/>
<path d="M6270 8884 c0 -6 7 -19 16 -30 14 -18 14 -18 3 6 -14 31 -19 36 -19
24z"/>
<path d="M5688 8873 c7 -3 16 -2 19 1 4 3 -2 6 -13 5 -11 0 -14 -3 -6 -6z"/>
<path d="M6250 8864 c0 -10 5 -26 10 -34 8 -11 9 -7 4 15 -8 37 -14 45 -14 19z"/>
<path d="M6430 8876 c0 -2 8 -10 18 -17 15 -13 16 -12 3 4 -13 16 -21 21 -21
13z"/>
<path d="M5640 8860 c-8 -5 -10 -10 -5 -10 6 0 17 5 25 10 8 5 11 10 5 10 -5
0 -17 -5 -25 -10z"/>
<path d="M3437 8817 c23 -23 60 -71 83 -107 24 -36 40 -57 37 -47 -9 26 -81
129 -106 151 -11 10 -18 22 -16 26 3 4 -5 10 -17 13 -16 5 -12 -3 19 -36z"/>
<path d="M5430 8799 c-96 -52 -182 -111 -216 -151 -10 -12 4 -4 31 19 42 34
178 123 189 123 1 0 27 13 57 30 30 16 50 30 44 30 -5 0 -53 -23 -105 -51z"/>
<path d="M5580 8835 c-14 -8 -20 -14 -15 -14 6 0 21 6 35 14 14 8 21 14 15 14
-5 0 -21 -6 -35 -14z"/>
<path d="M6490 8825 c13 -14 26 -25 28 -25 3 0 -5 11 -18 25 -13 14 -26 25
-28 25 -3 0 5 -11 18 -25z"/>
<path d="M3450 8836 c0 -3 9 -10 20 -16 11 -6 20 -8 20 -6 0 3 -9 10 -20 16
-11 6 -20 8 -20 6z"/>
<path d="M3623 8815 c9 -34 16 -70 23 -111 7 -48 14 -57 14 -18 0 33 -25 133
-36 143 -3 3 -4 -3 -1 -14z"/>
<path d="M6325 8800 c10 -11 20 -20 23 -20 3 0 -3 9 -13 20 -10 11 -20 20 -23
20 -3 0 3 -9 13 -20z"/>
<path d="M6439 8788 c19 -21 37 -36 39 -33 3 3 3 6 1 8 -2 1 -20 15 -39 32
l-35 30 34 -37z"/>
<path d="M3526 8784 c18 -16 48 -51 68 -77 20 -27 36 -44 36 -39 0 18 -64 94
-100 120 l-35 25 31 -29z"/>
<path d="M6280 8790 c6 -11 13 -20 16 -20 2 0 0 9 -6 20 -6 11 -13 20 -16 20
-2 0 0 -9 6 -20z"/>
<path d="M4000 8780 c-6 -11 -8 -20 -6 -20 3 0 10 9 16 20 6 11 8 20 6 20 -3
0 -10 -9 -16 -20z"/>
<path d="M3850 8738 c-3 -31 -1 -53 3 -49 5 5 7 30 5 57 l-3 49 -5 -57z"/>
<path d="M5448 8768 c-20 -12 -40 -28 -43 -36 -3 -8 8 -4 24 10 15 12 37 28
47 35 33 20 11 14 -28 -9z"/>
<path d="M6603 8724 c53 -55 65 -72 55 -82 -8 -8 -8 -12 -1 -12 6 0 16 6 22
14 9 11 -5 27 -66 81 l-78 69 68 -70z"/>
<path d="M6390 8735 c19 -19 36 -35 39 -35 3 0 -10 16 -29 35 -19 19 -36 35
-39 35 -3 0 10 -16 29 -35z"/>
<path d="M6335 8721 c22 -23 60 -56 85 -72 45 -30 45 -30 10 -2 -19 15 -57 48
-85 73 l-50 44 40 -43z"/>
<path d="M3966 8710 c-22 -56 -19 -65 5 -11 11 24 18 46 15 48 -2 2 -11 -14
-20 -37z"/>
<path d="M6493 8743 c4 -6 26 -26 49 -45 23 -18 39 -28 35 -21 -4 6 -26 26
-49 45 -23 18 -39 28 -35 21z"/>
<path d="M5416 8690 c12 -5 43 -11 70 -14 48 -5 47 -5 -11 9 -67 16 -91 18
-59 5z"/>
<path d="M6443 8693 c9 -14 87 -77 87 -70 0 3 -21 22 -47 43 -26 21 -44 33
-40 27z"/>
<path d="M5289 8650 l-24 -20 32 17 c17 10 35 14 40 9 4 -4 8 -41 8 -81 0 -40
3 -68 7 -61 4 6 7 31 7 56 -2 93 -24 119 -70 80z"/>
<path d="M6604 8656 c11 -9 24 -16 30 -16 12 0 7 5 -24 19 -24 11 -24 11 -6
-3z"/>
<path d="M5631 8636 c10 -9 109 -56 109 -51 0 5 -95 55 -106 55 -4 0 -5 -2 -3
-4z"/>
<path d="M4336 8621 c-11 -17 9 -20 152 -18 95 0 141 4 139 11 -5 14 -283 20
-291 7z"/>
<path d="M3570 8611 c0 -6 4 -13 10 -16 6 -3 7 1 4 9 -7 18 -14 21 -14 7z"/>
<path d="M6829 8603 c-13 -16 -12 -17 4 -4 9 7 17 15 17 17 0 8 -8 3 -21 -13z"/>
<path d="M3050 8601 c-56 -4 -94 -10 -92 -16 1 -6 70 -9 190 -7 174 4 202 6
191 16 -8 8 -198 12 -289 7z"/>
<path d="M5090 8535 c-41 -41 -72 -75 -69 -75 2 0 38 34 79 75 41 41 72 75 69
75 -2 0 -38 -34 -79 -75z"/>
<path d="M3768 8593 c12 -2 32 -2 45 0 12 2 2 4 -23 4 -25 0 -35 -2 -22 -4z"/>
<path d="M5170 8555 c-24 -25 -42 -45 -39 -45 3 0 25 20 49 45 24 25 42 45 39
45 -3 0 -25 -20 -49 -45z"/>
<path d="M6578 8588 c11 -13 11 -17 0 -21 -7 -2 -2 -2 10 0 15 2 21 0 17 -7
-3 -5 -1 -10 5 -10 18 0 6 22 -21 39 -22 15 -23 15 -11 -1z"/>
<path d="M6527 8579 c7 -7 15 -10 18 -7 3 3 -2 9 -12 12 -14 6 -15 5 -6 -5z"/>
<path d="M5780 8556 c0 -2 8 -10 18 -17 15 -13 16 -12 3 4 -13 16 -21 21 -21
13z"/>
<path d="M5835 8511 c23 -27 115 -105 115 -98 0 2 -30 31 -67 63 -38 32 -59
48 -48 35z"/>
<path d="M6702 8475 c0 -11 3 -29 8 -40 11 -25 11 1 0 35 -6 20 -8 21 -8 5z"/>
<path d="M5020 8403 c-39 -43 -81 -91 -92 -108 -11 -16 -1 -7 23 20 24 28 68
76 98 108 30 31 51 57 48 57 -3 0 -38 -35 -77 -77z"/>
<path d="M5343 8425 c0 -27 2 -38 4 -22 2 15 2 37 0 50 -2 12 -4 0 -4 -28z"/>
<path d="M4943 8373 c-26 -31 -63 -74 -82 -95 l-33 -38 -157 -2 -156 -2 154
-3 c111 -3 157 0 168 9 20 16 165 188 159 188 -3 0 -26 -26 -53 -57z"/>
<path d="M6692 8405 c0 -16 2 -22 5 -12 2 9 2 23 0 30 -3 6 -5 -1 -5 -18z"/>
<path d="M6722 8390 c0 -14 2 -19 5 -12 2 6 2 18 0 25 -3 6 -5 1 -5 -13z"/>
<path d="M5960 8387 c0 -1 35 -36 78 -77 l77 -75 -75 78 c-69 71 -80 82 -80
74z"/>
<path d="M5336 8355 c-3 -9 -5 -35 -5 -58 2 -40 2 -39 9 13 7 59 6 71 -4 45z"/>
<path d="M3332 8343 c3 -15 14 -18 63 -18 49 0 60 3 63 18 3 15 -5 17 -63 17
-58 0 -66 -2 -63 -17z"/>
<path d="M6702 8340 c0 -14 2 -19 5 -12 2 6 2 18 0 25 -3 6 -5 1 -5 -13z"/>
<path d="M6732 8340 c0 -14 2 -19 5 -12 2 6 2 18 0 25 -3 6 -5 1 -5 -13z"/>
<path d="M7192 8313 c-60 -3 -82 -7 -79 -16 3 -9 61 -11 238 -8 129 2 236 5
238 7 26 23 -108 28 -397 17z"/>
<path d="M6713 8275 c0 -22 2 -30 4 -17 2 12 2 30 0 40 -3 9 -5 -1 -4 -23z"/>
<path d="M6743 8270 c0 -25 2 -35 4 -22 2 12 2 32 0 45 -2 12 -4 2 -4 -23z"/>
<path d="M4398 8233 c17 -2 47 -2 65 0 17 2 3 4 -33 4 -36 0 -50 -2 -32 -4z"/>
<path d="M4290 8220 c-20 -6 -21 -8 -5 -8 11 0 34 4 50 8 27 7 27 8 5 8 -14 0
-36 -4 -50 -8z"/>
<path d="M5323 8185 c0 -27 2 -38 4 -22 2 15 2 37 0 50 -2 12 -4 0 -4 -28z"/>
<path d="M6110 8226 c0 -2 8 -10 18 -17 15 -13 16 -12 3 4 -13 16 -21 21 -21
13z"/>
<path d="M4940 8212 c0 -5 8 -20 18 -33 10 -13 33 -50 51 -81 18 -32 35 -58
37 -58 6 0 -54 109 -68 125 -15 17 -8 26 13 14 15 -8 19 -8 15 0 -10 16 -66
43 -66 33z"/>
<path d="M4215 8195 c-25 -12 -26 -14 -5 -9 28 7 60 23 45 23 -5 0 -23 -6 -40
-14z"/>
<path d="M4783 8203 c9 -2 25 -2 35 0 9 3 1 5 -18 5 -19 0 -27 -2 -17 -5z"/>
<path d="M6723 8135 c0 -44 2 -61 4 -37 2 23 2 59 0 80 -2 20 -4 1 -4 -43z"/>
<path d="M6754 8095 c0 -66 1 -92 3 -57 2 34 2 88 0 120 -2 31 -3 3 -3 -63z"/>
<path d="M6170 8165 c13 -14 26 -25 28 -25 3 0 -5 11 -18 25 -13 14 -26 25
-28 25 -3 0 5 -11 18 -25z"/>
<path d="M2724 8152 c-47 -23 -84 -65 -84 -98 0 -35 52 -48 169 -40 53 4 131
6 175 5 61 0 77 2 74 13 -3 8 -27 15 -61 18 -53 5 -58 8 -75 39 -36 71 -121
98 -198 63z m162 -57 c14 -14 22 -30 19 -35 -11 -18 -51 -10 -75 16 -21 21
-22 27 -10 34 24 15 39 12 66 -15z"/>
<path d="M4085 8140 c-33 -15 -55 -28 -50 -28 13 0 133 56 120 57 -5 0 -37
-13 -70 -29z"/>
<path d="M4443 8163 c9 -2 23 -2 30 0 6 3 -1 5 -18 5 -16 0 -22 -2 -12 -5z"/>
<path d="M4225 8150 c-13 -5 -1 -6 31 -3 l52 5 41 -61 c44 -64 65 -83 34 -30
-41 69 -73 99 -106 98 -18 0 -41 -4 -52 -9z"/>
<path d="M4500 8150 c8 -5 22 -9 30 -9 10 0 8 3 -5 9 -27 12 -43 12 -25 0z"/>
<path d="M5021 8140 c14 -31 19 -36 19 -24 0 6 -7 19 -16 30 -14 18 -14 18 -3
-6z"/>
<path d="M4560 8131 c8 -5 31 -11 50 -15 l35 -6 -35 14 c-41 17 -75 21 -50 7z"/>
<path d="M5305 8047 c-4 -46 -5 -92 -3 -103 2 -10 8 25 12 79 4 54 6 101 3
103 -3 3 -8 -32 -12 -79z"/>
<path d="M6230 8117 c0 -2 15 -16 33 -33 l32 -29 -29 33 c-28 30 -36 37 -36
29z"/>
<path d="M4658 8103 c7 -3 16 -2 19 1 4 3 -2 6 -13 5 -11 0 -14 -3 -6 -6z"/>
<path d="M3955 8083 c-16 -9 -66 -22 -110 -29 l-80 -14 68 5 c44 3 87 13 120
29 29 13 48 25 42 25 -5 0 -23 -7 -40 -16z"/>
<path d="M4070 8085 c-14 -8 -20 -14 -15 -14 6 0 21 6 35 14 14 8 21 14 15 14
-5 0 -21 -6 -35 -14z"/>
<path d="M4690 8096 c0 -2 8 -10 18 -17 15 -13 16 -12 3 4 -13 16 -21 21 -21
13z"/>
<path d="M5040 8095 c0 -5 5 -17 10 -25 5 -8 10 -10 10 -5 0 6 -5 17 -10 25
-5 8 -10 11 -10 5z"/>
<path d="M6360 8004 c36 -32 102 -95 147 -140 45 -45 78 -74 73 -65 -17 30
-75 89 -149 153 -102 87 -150 123 -71 52z"/>
<path d="M2492 8043 c-27 -11 3 -23 59 -23 57 0 77 11 43 24 -18 7 -83 7 -102
-1z"/>
<path d="M3728 8033 c6 -2 18 -2 25 0 6 3 1 5 -13 5 -14 0 -19 -2 -12 -5z"/>
<path d="M3930 8030 c-18 -12 -2 -12 25 0 13 6 15 9 5 9 -8 0 -22 -4 -30 -9z"/>
<path d="M3678 8023 c6 -2 18 -2 25 0 6 3 1 5 -13 5 -14 0 -19 -2 -12 -5z"/>
<path d="M4751 8015 c43 -63 259 -288 344 -358 27 -23 -23 30 -111 118 -89 88
-181 183 -204 210 -24 28 -37 41 -29 30z"/>
<path d="M6711 8014 c0 -11 3 -14 6 -6 3 7 2 16 -1 19 -3 4 -6 -2 -5 -13z"/>
<path d="M3868 8013 c6 -2 18 -2 25 0 6 3 1 5 -13 5 -14 0 -19 -2 -12 -5z"/>
<path d="M4439 7963 c60 -89 101 -127 168 -162 84 -42 94 -39 14 4 -78 42
-109 70 -168 153 -56 78 -67 82 -14 5z"/>
<path d="M3768 7993 c6 -2 18 -2 25 0 6 3 1 5 -13 5 -14 0 -19 -2 -12 -5z"/>
<path d="M3688 7968 c13 -16 181 -93 188 -86 2 3 -22 15 -54 28 -31 13 -77 35
-102 49 -28 16 -40 19 -32 9z"/>
<path d="M6711 7964 c0 -11 3 -14 6 -6 3 7 2 16 -1 19 -3 4 -6 -2 -5 -13z"/>
<path d="M3487 7940 c-103 -65 -200 -199 -212 -291 l-5 -44 13 50 c8 28 24 70
36 95 30 56 123 155 179 187 36 22 50 33 39 33 -2 0 -24 -13 -50 -30z"/>
<path d="M3638 7963 c7 -3 16 -2 19 1 4 3 -2 6 -13 5 -11 0 -14 -3 -6 -6z"/>
<path d="M3770 7955 c14 -8 32 -14 40 -14 9 0 4 6 -10 14 -14 8 -32 14 -40 14
-9 0 -4 -6 10 -14z"/>
<path d="M6742 7945 c0 -16 2 -22 5 -12 2 9 2 23 0 30 -3 6 -5 -1 -5 -18z"/>
<path d="M3548 7929 c-21 -11 -38 -22 -38 -24 0 -5 79 32 89 41 12 11 -18 1
-51 -17z"/>
<path d="M3869 7919 c24 -11 46 -18 48 -15 4 4 -73 36 -85 35 -4 0 13 -9 37
-20z"/>
<path d="M6691 7864 c-13 -50 -47 -124 -58 -124 -3 0 -15 8 -25 17 -17 15 -18
15 -13 1 12 -30 39 -31 62 -2 21 26 59 141 50 150 -2 3 -10 -16 -16 -42z"/>
<path d="M7517 7904 c-17 -17 -4 -24 44 -24 36 0 49 4 47 13 -5 13 -79 22 -91
11z"/>
<path d="M3457 7868 c-21 -17 -42 -40 -48 -52 -8 -17 -5 -16 13 5 13 15 37 38
53 52 42 37 28 33 -18 -5z"/>
<path d="M5292 7835 c-2 -88 10 -135 45 -166 l27 -24 -26 33 c-27 32 -35 68
-41 172 -3 50 -3 49 -5 -15z"/>
<path d="M4020 7860 c8 -5 20 -10 25 -10 6 0 3 5 -5 10 -8 5 -19 10 -25 10 -5
0 -3 -5 5 -10z"/>
<path d="M6722 7850 c0 -14 2 -19 5 -12 2 6 2 18 0 25 -3 6 -5 1 -5 -13z"/>
<path d="M5846 7852 c-11 -5 6 -8 45 -7 35 0 93 -3 129 -7 45 -5 54 -4 30 2
-53 13 -183 21 -204 12z"/>
<path d="M3999 7829 c24 -11 46 -18 48 -15 4 4 -73 36 -85 35 -4 0 13 -9 37
-20z"/>
<path d="M5770 7820 c-19 -11 -30 -19 -25 -19 6 0 26 8 45 19 19 11 31 19 25
19 -5 0 -26 -8 -45 -19z"/>
<path d="M6110 7820 c34 -11 60 -11 35 0 -11 5 -29 8 -40 8 -16 0 -15 -2 5 -8z"/>
<path d="M3465 7804 c-22 -9 -48 -16 -57 -17 -10 -1 -14 -5 -9 -10 5 -5 23 -1
42 9 36 19 140 25 194 11 25 -6 27 -5 11 4 -32 19 -136 21 -181 3z"/>
<path d="M4170 7800 c8 -5 20 -10 25 -10 6 0 3 5 -5 10 -8 5 -19 10 -25 10 -5
0 -3 -5 5 -10z"/>
<path d="M6195 7800 c11 -5 27 -9 35 -9 9 0 8 4 -5 9 -11 5 -27 9 -35 9 -9 0
-8 -4 5 -9z"/>
<path d="M5674 7766 c-28 -19 -68 -51 -89 -70 -20 -20 -40 -35 -44 -33 -3 1
-25 -17 -47 -40 -23 -24 -39 -43 -35 -43 4 0 12 5 19 12 8 8 12 9 12 1 0 -6
-26 -35 -57 -64 -32 -29 -44 -43 -27 -31 17 12 68 62 113 110 44 49 107 109
138 133 69 51 78 59 72 59 -2 0 -27 -15 -55 -34z"/>
<path d="M3715 7762 c28 -15 64 -36 80 -46 l30 -18 -25 22 c-25 22 -112 70
-127 70 -4 0 15 -13 42 -28z"/>
<path d="M7175 7780 c-13 -21 8 -30 70 -30 63 0 91 14 64 31 -19 12 -126 11
-134 -1z"/>
<path d="M4250 7765 c14 -8 30 -14 35 -14 6 0 -1 6 -15 14 -14 8 -29 14 -35
14 -5 0 1 -6 15 -14z"/>
<path d="M4170 7755 c14 -8 30 -14 35 -14 6 0 -1 6 -15 14 -14 8 -29 14 -35
14 -5 0 1 -6 15 -14z"/>
<path d="M6320 7760 c8 -5 22 -9 30 -9 10 0 8 3 -5 9 -27 12 -43 12 -25 0z"/>
<path d="M4769 7729 c35 -16 66 -28 68 -26 4 5 -114 57 -125 56 -4 0 22 -14
57 -30z"/>
<path d="M5878 7753 c7 -3 16 -2 19 1 4 3 -2 6 -13 5 -11 0 -14 -3 -6 -6z"/>
<path d="M5763 7643 c-49 -60 -154 -180 -234 -267 -79 -88 -184 -206 -232
-262 -57 -67 -102 -109 -130 -123 -23 -12 -36 -21 -29 -21 33 0 78 39 178 152
59 68 149 168 199 223 156 172 352 405 342 405 -3 0 -45 -48 -94 -107z"/>
<path d="M5942 7735 c45 -17 198 -48 204 -42 3 2 -24 10 -58 16 -35 7 -85 19
-112 27 -62 18 -83 17 -34 -1z"/>
<path d="M6395 7736 c17 -8 48 -15 70 -14 39 0 39 1 -10 8 -27 4 -59 11 -70
14 -11 4 -6 0 10 -8z"/>
<path d="M6565 7735 c42 -34 -22 -76 -130 -86 l-70 -6 69 -1 c58 -2 76 2 113
23 48 29 56 58 21 75 -22 11 -22 11 -3 -5z"/>
<path d="M6688 7735 c-3 -11 -9 -29 -13 -40 -3 -11 1 -7 10 8 9 16 15 33 12
40 -2 6 -6 3 -9 -8z"/>
<path d="M6518 7733 c7 -3 16 -2 19 1 4 3 -2 6 -13 5 -11 0 -14 -3 -6 -6z"/>
<path d="M3830 7697 c0 -3 17 -17 37 -33 20 -15 33 -23 29 -16 -8 13 -66 56
-66 49z"/>
<path d="M4310 7695 c0 -7 81 -47 86 -43 2 3 -17 14 -41 26 -25 12 -45 20 -45
17z"/>
<path d="M4851 7696 c8 -8 322 -126 325 -123 5 4 -47 26 -195 81 -119 44 -139
51 -130 42z"/>
<path d="M6168 7683 c6 -2 18 -2 25 0 6 3 1 5 -13 5 -14 0 -19 -2 -12 -5z"/>
<path d="M6230 7670 c14 -4 36 -8 50 -8 22 0 22 1 -5 8 -16 4 -39 8 -50 8 -16
0 -15 -2 5 -8z"/>
<path d="M6323 7653 c9 -2 23 -2 30 0 6 3 -1 5 -18 5 -16 0 -22 -2 -12 -5z"/>
<path d="M6617 7603 c-54 -72 -133 -144 -227 -207 -47 -31 -81 -56 -77 -56 5
0 43 23 86 50 74 48 225 191 250 239 19 35 5 24 -32 -26z"/>
<path d="M3996 7557 c94 -89 137 -156 200 -306 13 -31 23 -49 24 -41 0 9 -27
70 -59 136 -48 97 -72 132 -125 186 -36 36 -80 77 -98 89 -18 13 8 -16 58 -64z"/>
<path d="M3261 7549 c1 -30 5 -67 9 -84 4 -17 5 5 2 50 -6 93 -13 114 -11 34z"/>
<path d="M4500 7586 c0 -2 14 -14 30 -26 17 -12 30 -19 30 -16 0 2 -13 14 -30
26 -16 12 -30 19 -30 16z"/>
<path d="M4580 7586 c0 -2 8 -10 18 -17 15 -13 16 -12 3 4 -13 16 -21 21 -21
13z"/>
<path d="M5414 7548 l-19 -23 23 19 c21 18 27 26 19 26 -2 0 -12 -10 -23 -22z"/>
<path d="M4650 7525 c13 -14 26 -25 28 -25 3 0 -5 11 -18 25 -13 14 -26 25
-28 25 -3 0 5 -11 18 -25z"/>
<path d="M4660 7455 c41 -38 158 -148 260 -244 102 -96 169 -158 150 -137 -19
21 -62 64 -95 95 -33 31 -102 97 -155 147 -95 90 -177 164 -215 194 -11 8 14
-16 55 -55z"/>
<path d="M4846 7345 c83 -83 172 -175 199 -205 l47 -55 -48 60 c-60 76 -188
208 -279 288 -38 34 -2 -6 81 -88z"/>
<path d="M5303 7468 c-23 -26 -57 -88 -50 -94 2 -2 12 14 22 36 19 42 55 83
42 47 -4 -11 -3 -16 4 -12 6 4 8 13 5 20 -3 8 0 16 7 19 7 2 8 5 1 5 -6 1 -20
-9 -31 -21z"/>
<path d="M3281 7414 c0 -11 3 -14 6 -6 3 7 2 16 -1 19 -3 4 -6 -2 -5 -13z"/>
<path d="M3291 7380 c0 -8 6 -28 14 -45 17 -39 18 -21 0 25 -7 19 -14 28 -14
20z"/>
<path d="M3398 7328 c9 -13 38 -44 63 -70 35 -37 53 -48 75 -47 29 1 29 1 -4
9 -37 9 -83 48 -114 98 -11 17 -24 32 -29 32 -5 0 -1 -10 9 -22z"/>
<path d="M5255 7329 c-6 -17 -9 -19 -16 -8 -6 10 -9 8 -9 -8 0 -13 4 -23 8
-23 10 0 35 50 28 57 -2 2 -7 -5 -11 -18z"/>
<path d="M3360 7325 c0 -36 47 -119 91 -162 45 -44 110 -73 160 -73 16 0 29
-5 29 -11 0 -18 -94 -3 -147 23 -51 26 -101 78 -144 153 -33 57 -39 54 -9 -4
29 -58 115 -147 159 -164 43 -18 136 -34 222 -40 l56 -3 6 85 c6 79 5 88 -15
106 -17 16 -19 16 -8 2 12 -16 12 -20 -1 -29 -11 -8 -10 -9 5 -4 14 5 17 2 12
-10 -3 -8 -6 -21 -6 -27 0 -7 -4 -6 -10 3 -8 13 -10 12 -10 -3 0 -10 -4 -16
-9 -12 -5 3 -12 1 -16 -4 -3 -6 -12 -8 -20 -4 -8 3 -15 0 -15 -6 0 -6 -4 -11
-9 -11 -6 0 5 27 24 60 19 34 31 59 26 56 -4 -3 -25 -34 -46 -70 -41 -70 -54
-77 -120 -63 -83 17 -154 86 -186 180 -10 29 -18 43 -19 32z"/>
<path d="M6228 7309 c-102 -52 -151 -60 -392 -58 l-219 0 -151 -154 c-217
-221 -250 -240 -516 -296 -138 -29 -445 -120 -436 -129 2 -2 69 17 147 42 79
24 212 59 294 77 83 17 173 40 201 51 85 31 181 107 326 257 l136 141 219 0
c260 1 325 13 436 81 48 29 19 22 -45 -12z"/>
<path d="M3634 7265 c-38 -24 -64 -45 -59 -45 6 0 36 18 69 40 66 45 108 51
176 24 41 -17 47 -23 31 -39 -17 -17 -19 -128 -4 -204 17 -88 68 -194 115
-238 34 -32 115 -79 123 -71 3 2 -14 13 -37 23 -66 29 -119 90 -157 180 -30
70 -35 94 -39 187 -3 76 -1 112 8 122 16 20 6 33 -37 51 -65 27 -112 20 -189
-30z"/>
<path d="M4494 7268 c-4 -7 -4 -10 1 -6 4 4 15 2 24 -5 14 -11 14 -10 2 6 -16
20 -18 21 -27 5z"/>
<path d="M6827 7261 c-91 -8 -87 -26 6 -25 39 1 123 2 185 3 92 1 112 4 112
16 0 13 -20 15 -117 13 -65 -1 -148 -4 -186 -7z"/>
<path d="M4501 7234 c0 -11 3 -14 6 -6 3 7 2 16 -1 19 -3 4 -6 -2 -5 -13z"/>
<path d="M4511 7200 c0 -8 4 -24 9 -35 5 -13 9 -14 9 -5 0 8 -4 24 -9 35 -5
13 -9 14 -9 5z"/>
<path d="M5839 7193 l-207 -3 -117 -125 c-64 -69 -113 -125 -108 -125 4 0 118
38 253 84 379 131 430 151 430 168 0 4 -10 7 -22 6 -13 -2 -116 -4 -229 -5z"/>
<path d="M4221 7185 c1 -19 18 -51 18 -35 0 8 -4 22 -9 30 -5 8 -9 11 -9 5z"/>
<path d="M4551 7174 c0 -11 3 -14 6 -6 3 7 2 16 -1 19 -3 4 -6 -2 -5 -13z"/>
<path d="M4561 7134 c0 -11 3 -14 6 -6 3 7 2 16 -1 19 -3 4 -6 -2 -5 -13z"/>
<path d="M4241 7114 c0 -11 3 -14 6 -6 3 7 2 16 -1 19 -3 4 -6 -2 -5 -13z"/>
<path d="M4532 7105 c0 -16 2 -22 5 -12 2 9 2 23 0 30 -3 6 -5 -1 -5 -18z"/>
<path d="M4251 7074 c0 -11 3 -14 6 -6 3 7 2 16 -1 19 -3 4 -6 -2 -5 -13z"/>
<path d="M4572 7030 c-3 -78 -29 -206 -31 -151 -1 46 -14 31 -17 -20 -1 -22 0
-38 4 -35 3 3 10 -2 17 -11 15 -20 38 -12 59 19 20 30 46 133 46 180 0 32 4
39 25 44 37 9 102 -3 218 -40 56 -19 122 -37 147 -40 25 -4 53 -10 63 -12 9
-3 17 -1 17 3 0 5 -16 10 -35 11 -19 2 -74 14 -122 29 -185 55 -219 63 -253
63 -51 0 -67 -17 -74 -80 -7 -72 -32 -143 -57 -166 -29 -26 -32 -13 -14 55 10
39 15 90 12 139 l-3 77 -2 -65z"/>
<path d="M4513 7038 c-23 -38 -102 -85 -153 -90 -34 -3 -35 -5 -47 -63 -16
-74 -53 -130 -117 -172 -27 -18 -44 -33 -39 -33 18 0 90 58 116 92 31 41 57
102 57 134 0 17 6 24 20 24 49 0 173 82 183 120 7 28 2 25 -20 -12z"/>
<path d="M2905 7033 c-79 -4 -107 -11 -99 -24 7 -11 261 -5 273 6 3 3 -1 10
-9 15 -15 9 -38 10 -165 3z"/>
<path d="M4263 6985 c0 -27 2 -38 4 -22 2 15 2 37 0 50 -2 12 -4 0 -4 -28z"/>
<path d="M3575 7004 c-251 -60 -280 -68 -308 -94 -41 -37 -31 -65 37 -96 57
-26 274 -86 498 -137 l147 -34 -39 46 c-48 57 -82 124 -110 218 -12 40 -28 77
-36 84 -15 12 -152 22 -189 13z"/>
<path d="M6027 6943 c-48 -3 -67 -8 -64 -16 2 -8 39 -13 113 -15 108 -2 143 5
130 27 -7 11 -31 11 -179 4z"/>
<path d="M4248 6905 c-4 -16 -9 -39 -12 -50 -4 -11 1 -5 9 14 9 18 14 41 13
50 -2 9 -7 3 -10 -14z"/>
<path d="M6744 6851 c-17 -4 -61 -27 -97 -51 -75 -50 -115 -108 -103 -153 9
-37 45 -42 261 -41 412 4 465 6 465 19 0 16 -45 25 -120 25 -57 0 -58 0 -64
32 -8 39 -87 117 -152 148 -48 24 -141 34 -190 21z m230 -90 c52 -36 89 -97
66 -111 -32 -21 -71 -10 -131 36 -32 25 -59 48 -59 52 0 8 61 50 73 51 5 1 27
-12 51 -28z"/>
<path d="M4199 6804 c-13 -15 -42 -35 -64 -45 -22 -10 -34 -19 -26 -19 22 0
90 42 106 67 20 30 14 29 -16 -3z"/>
<path d="M3979 6682 c65 -59 126 -75 264 -70 79 3 133 11 185 27 40 13 71 25
68 28 -3 3 -35 -6 -73 -18 -58 -20 -87 -24 -198 -24 -114 0 -136 3 -179 23
-57 26 -56 39 2 21 29 -8 47 -9 68 0 l29 11 -33 -6 c-19 -3 -53 2 -85 12 -28
10 -54 18 -57 19 -3 0 -12 4 -20 8 -8 5 5 -10 29 -31z m16 0 c-3 -3 -11 0 -18
7 -9 10 -8 11 6 5 10 -3 15 -9 12 -12z"/>
<path d="M5325 6491 c-10 -18 42 -36 72 -25 15 5 27 14 27 19 1 14 -91 19 -99
6z"/>
<path d="M6024 6438 c-22 -4 -74 -7 -116 -7 -45 -1 -78 -5 -78 -11 0 -6 80
-10 220 -10 144 0 220 4 220 10 0 6 -6 12 -12 15 -24 8 -196 10 -234 3z"/>
<path d="M4954 6365 c-29 -22 -2 -35 73 -35 64 0 83 11 63 35 -17 20 -110 20
-136 0z"/>
<path d="M7482 6357 c-7 -8 -12 -118 -14 -307 -3 -283 -4 -297 -25 -337 -12
-22 -39 -55 -60 -73 -21 -18 -29 -27 -18 -22 32 16 71 59 92 100 16 33 18 69
21 332 2 189 7 299 14 307 6 7 8 13 5 13 -2 0 -9 -6 -15 -13z"/>
<path d="M2683 6045 c-1 -170 1 -318 5 -327 6 -16 5 406 -1 567 -2 39 -4 -69
-4 -240z"/>
<path d="M3836 6262 c-2 -2 -57 -6 -122 -10 -71 -4 -118 -11 -117 -17 4 -14
165 -18 209 -6 24 7 86 7 182 0 140 -9 178 -5 150 18 -11 10 -294 24 -302 15z"/>
<path d="M7564 6160 c0 -52 1 -74 3 -47 2 26 2 68 0 95 -2 26 -3 4 -3 -48z"/>
<path d="M6505 6029 c-4 -6 -5 -12 -2 -15 2 -3 7 2 10 11 7 17 1 20 -8 4z"/>
<path d="M6207 6009 c7 -7 15 -10 18 -7 3 3 -2 9 -12 12 -14 6 -15 5 -6 -5z"/>
<path d="M6220 5986 c0 -2 8 -10 18 -17 15 -13 16 -12 3 4 -13 16 -21 21 -21
13z"/>
<path d="M7564 5880 c0 -58 1 -81 3 -52 2 28 2 76 0 105 -2 28 -3 5 -3 -53z"/>
<path d="M5276 5941 c-83 -4 -121 -10 -124 -19 -3 -10 47 -11 245 -8 297 6
269 4 258 15 -13 13 -233 20 -379 12z"/>
<path d="M6298 5859 c26 -53 49 -95 51 -93 5 4 -63 144 -82 169 -9 11 5 -23
31 -76z"/>
<path d="M6310 5946 c0 -2 8 -10 18 -17 15 -13 16 -12 3 4 -13 16 -21 21 -21
13z"/>
<path d="M6760 5940 c-9 -6 -10 -10 -3 -10 6 0 15 5 18 10 8 12 4 12 -15 0z"/>
<path d="M6374 5861 c20 -29 36 -58 36 -64 0 -6 3 -8 6 -5 8 9 -30 80 -56 103
-14 13 -9 1 14 -34z"/>
<path d="M6535 5825 c-4 -47 -5 -88 -2 -91 2 -3 8 34 12 81 4 48 5 89 2 91 -3
3 -8 -33 -12 -81z"/>
<path d="M6713 5878 c-15 -20 -25 -38 -20 -38 3 0 12 11 21 25 17 26 16 35 -1
13z"/>
<path d="M6446 5841 c-4 -24 -5 -46 -2 -48 7 -7 19 63 14 79 -3 7 -8 -7 -12
-31z"/>
<path d="M6629 5853 c-32 -36 -53 -63 -47 -63 2 0 21 20 41 45 42 49 45 61 6
18z"/>
<path d="M2771 5782 c0 -18 7 -49 17 -70 18 -37 18 -37 -4 -58 -13 -12 -25
-20 -28 -18 -4 2 -1 -2 5 -9 9 -9 13 -9 16 2 5 11 7 11 14 0 6 -10 9 -7 9 10
0 20 2 21 15 11 8 -7 15 -9 15 -6 0 4 15 -4 33 -17 59 -44 85 -47 366 -45
l266 2 -280 6 c-177 3 -289 9 -306 17 -68 30 -117 94 -130 168 -6 39 -7 39 -8
7z"/>
<path d="M6566 5765 c-9 -26 -7 -32 5 -12 6 10 9 21 6 23 -2 3 -7 -2 -11 -11z"/>
<path d="M7552 5745 c0 -16 2 -22 5 -12 2 9 2 23 0 30 -3 6 -5 -1 -5 -18z"/>
<path d="M6350 5745 c0 -5 5 -17 10 -25 5 -8 10 -10 10 -5 0 6 -5 17 -10 25
-5 8 -10 11 -10 5z"/>
<path d="M6617 5705 c-5 -12 -27 -15 -129 -14 -68 1 -136 4 -152 8 -16 3 -53
4 -82 3 -41 -3 -54 -8 -54 -19 0 -14 12 -15 83 -10 45 4 139 7 208 7 108 0
128 2 133 16 4 9 5 19 2 21 -2 2 -6 -3 -9 -12z"/>
<path d="M2707 5672 c7 -27 86 -118 117 -133 11 -6 4 3 -17 21 -20 17 -34 36
-31 42 4 7 2 8 -5 4 -7 -4 -18 5 -29 24 -9 17 -22 39 -29 48 -10 15 -11 14 -6
-6z"/>
<path d="M7521 5663 c-10 -26 -10 -27 4 -9 8 11 15 23 15 28 0 15 -7 8 -19
-19z"/>
<path d="M7484 5608 l-19 -23 23 19 c21 18 27 26 19 26 -2 0 -12 -10 -23 -22z"/>
<path d="M7305 5600 c-13 -6 -15 -9 -5 -9 8 0 22 4 30 9 18 12 2 12 -25 0z"/>
<path d="M6883 5583 c76 -2 198 -2 270 0 73 1 11 3 -138 3 -148 0 -208 -2
-132 -3z"/>
<path d="M3506 5567 c3 -10 9 -15 12 -12 3 3 0 11 -7 18 -10 9 -11 8 -5 -6z"/>
<path d="M6727 5573 c-9 -9 -8 -45 1 -60 5 -7 8 4 7 27 0 22 0 40 -1 40 0 0
-4 -3 -7 -7z"/>
<path d="M7429 5553 c-13 -16 -12 -17 4 -4 9 7 17 15 17 17 0 8 -8 3 -21 -13z"/>
<path d="M2870 5515 c14 -8 34 -14 45 -14 11 0 2 6 -20 14 -50 18 -57 18 -25
0z"/>
<path d="M7320 5510 c-20 -6 -21 -8 -5 -8 11 0 29 3 40 8 25 11 -1 11 -35 0z"/>
<path d="M3078 5493 c79 -2 205 -2 280 0 75 1 11 3 -143 3 -154 0 -216 -2
-137 -3z"/>
<path d="M6883 5493 c75 -2 199 -2 275 0 75 1 13 3 -138 3 -151 0 -213 -2
-137 -3z"/>
<path d="M2564 4936 c-93 -23 -199 -102 -209 -157 -4 -23 -4 -23 10 -5 8 10
12 22 10 26 -5 9 38 48 86 78 90 55 -89 51 2632 52 1724 1 2523 -2 2546 -9 19
-6 30 -7 25 -2 -31 30 -145 31 -2582 30 -1928 -1 -2478 -3 -2518 -13z"/>
<path d="M7695 4898 c33 -18 133 -117 126 -124 -3 -4 0 -4 7 0 10 6 8 15 -11
39 -31 41 -104 97 -125 97 -14 -1 -13 -3 3 -12z"/>
<path d="M7848 4744 c-4 -4 -4 -12 0 -18 10 -16 9 17 12 -588 1 -310 6 -549
10 -533 13 53 10 1075 -4 1113 -6 18 -15 30 -18 26z"/>
<path d="M2938 4685 c-27 -9 -48 -19 -48 -24 0 -5 19 -2 43 7 28 11 77 16 147
16 114 1 190 -17 265 -61 l40 -24 -30 26 c-57 48 -129 68 -255 72 -82 2 -129
-2 -162 -12z"/>
<path d="M2312 4665 c0 -16 2 -22 5 -12 2 9 2 23 0 30 -3 6 -5 -1 -5 -18z"/>
<path d="M2782 4610 c-12 -11 -26 -20 -31 -20 -6 0 -16 -9 -23 -20 -7 -11 -17
-20 -23 -20 -11 0 -84 -90 -104 -127 -19 -36 3 -27 23 10 21 36 127 144 166
169 14 9 22 19 19 22 -3 3 -15 -3 -27 -14z"/>
<path d="M2309 4508 c-5 -391 -3 -798 4 -798 4 0 7 205 7 455 0 250 -2 455 -5
455 -3 0 -6 -51 -6 -112z"/>
<path d="M4050 4505 c0 -98 1 -105 20 -105 19 0 20 7 20 105 0 98 -1 105 -20
105 -19 0 -20 -7 -20 -105z"/>
<path d="M4535 4600 c-8 -14 3 -30 21 -30 8 0 14 9 14 20 0 21 -24 28 -35 10z"/>
<path d="M5410 4505 c0 -87 3 -105 15 -105 12 0 15 18 15 105 0 87 -3 105 -15
105 -12 0 -15 -18 -15 -105z"/>
<path d="M3443 4547 c29 -28 65 -68 80 -87 14 -19 29 -32 32 -28 4 3 -2 15
-13 26 -11 11 -18 22 -16 25 6 5 -85 90 -114 104 -13 7 1 -11 31 -40z"/>
<path d="M3880 4500 c0 -93 1 -100 20 -100 16 0 20 7 20 35 0 32 2 35 30 35
35 0 80 38 80 67 0 10 -7 29 -16 41 -13 19 -24 22 -75 22 l-59 0 0 -100z m101
54 c18 -21 0 -48 -35 -52 -24 -3 -26 0 -26 32 0 31 3 36 24 36 13 0 29 -7 37
-16z"/>
<path d="M4840 4500 l0 -100 58 0 c44 0 63 5 75 18 21 23 22 56 2 72 -11 9
-12 16 -2 30 8 13 8 27 1 47 -9 26 -14 28 -72 31 l-62 3 0 -101z m98 58 c16
-16 -3 -38 -34 -38 -19 0 -24 5 -24 25 0 19 5 25 23 25 13 0 28 -5 35 -12z m0
-77 c25 -16 9 -46 -26 -49 -30 -3 -32 -1 -32 27 0 26 4 31 23 31 12 0 28 -4
35 -9z"/>
<path d="M4441 4576 c-6 -7 -8 -16 -4 -19 3 -4 -1 -7 -10 -7 -20 0 -23 -26 -5
-32 8 -3 12 -18 10 -41 -5 -50 12 -77 48 -77 34 0 41 19 10 27 -16 4 -20 14
-20 45 0 31 4 41 20 45 11 3 20 9 20 13 0 5 -9 12 -20 15 -11 3 -20 13 -20 20
0 20 -16 27 -29 11z"/>
<path d="M5213 4583 c-7 -3 -13 -11 -13 -18 0 -8 -8 -19 -17 -25 -17 -10 -17
-10 0 -20 12 -8 17 -24 17 -55 0 -47 21 -78 49 -73 21 4 27 38 7 38 -12 0 -16
11 -16 45 0 33 4 45 15 45 8 0 15 7 15 15 0 8 -7 15 -15 15 -8 0 -15 6 -15 14
0 18 -11 25 -27 19z"/>
<path d="M5310 4565 c0 -7 -8 -19 -17 -24 -17 -10 -17 -12 -1 -24 11 -9 18
-31 20 -63 3 -47 4 -49 36 -52 36 -4 47 22 12 31 -15 4 -20 14 -20 40 0 26 5
36 20 40 11 3 20 10 20 17 0 7 -9 14 -20 17 -11 3 -20 12 -20 19 0 8 -7 14
-15 14 -8 0 -15 -7 -15 -15z"/>
<path d="M4148 4539 c-21 -12 -24 -39 -5 -39 7 0 18 5 24 11 13 13 43 5 43
-10 0 -5 -15 -12 -34 -15 -43 -8 -60 -28 -52 -61 6 -24 22 -31 56 -26 8 1 27
2 43 1 26 0 27 1 27 55 0 42 -5 60 -20 75 -22 22 -55 25 -82 9z m62 -93 c0
-13 -20 -26 -41 -26 -5 0 -9 9 -9 20 0 15 7 20 25 20 15 0 25 -6 25 -14z"/>
<path d="M4296 4534 c-32 -32 -17 -65 37 -78 15 -3 27 -11 27 -17 0 -15 -30
-23 -43 -10 -16 16 -37 14 -37 -4 0 -20 45 -37 76 -29 14 4 31 18 37 31 10 22
8 28 -12 44 -13 11 -32 19 -42 19 -10 0 -19 7 -19 15 0 18 21 20 38 3 9 -9 15
-9 25 1 10 10 8 15 -7 27 -26 18 -61 18 -80 -2z"/>
<path d="M4537 4544 c-4 -4 -7 -38 -7 -76 0 -62 2 -68 20 -68 19 0 21 5 18 72
-3 65 -13 89 -31 72z"/>
<path d="M4626 4527 c-46 -46 -26 -117 36 -131 20 -5 34 0 55 18 24 21 26 25
11 31 -10 4 -24 0 -33 -9 -13 -12 -21 -13 -36 -6 -22 13 -26 62 -5 79 14 12
46 5 46 -10 0 -5 6 -9 14 -9 41 0 14 47 -32 56 -24 5 -36 1 -56 -19z"/>
<path d="M5039 4531 c-18 -14 -24 -29 -24 -60 0 -51 23 -75 71 -75 69 0 99 80
49 129 -29 30 -64 32 -96 6z m70 -25 c7 -8 11 -27 9 -43 -2 -21 -9 -29 -27
-31 -40 -6 -59 57 -23 77 23 14 28 13 41 -3z"/>
<path d="M5510 4537 c-52 -26 -51 -109 2 -135 31 -14 77 -7 85 15 8 21 -4 28
-30 16 -15 -7 -29 -7 -40 -1 -31 17 -18 28 33 28 46 0 50 2 50 24 0 15 -11 33
-26 45 -31 24 -40 25 -74 8z m60 -32 c11 -13 7 -15 -25 -15 -32 0 -36 2 -25
15 7 8 18 15 25 15 7 0 18 -7 25 -15z"/>
<path d="M3151 4494 c0 -11 3 -14 6 -6 3 7 2 16 -1 19 -3 4 -6 -2 -5 -13z"/>
<path d="M3012 4460 c0 -19 2 -27 5 -17 2 9 2 25 0 35 -3 9 -5 1 -5 -18z"/>
<path d="M7149 4457 c-175 -49 -282 -218 -249 -394 7 -35 17 -66 23 -70 7 -4
8 0 3 12 -80 210 69 443 287 448 34 1 80 -1 102 -5 28 -5 33 -5 18 2 -39 16
-136 20 -184 7z"/>
<path d="M3063 4423 c15 -2 37 -2 50 0 12 2 0 4 -28 4 -27 0 -38 -2 -22 -4z"/>
<path d="M7416 4401 c92 -66 137 -149 138 -256 1 -38 -3 -86 -7 -105 -7 -30
-6 -32 4 -15 7 10 14 51 17 90 6 102 -22 171 -104 253 -34 34 -68 62 -75 62
-6 0 6 -13 27 -29z"/>
<path d="M2990 4376 c-47 -52 -58 -71 -33 -58 30 17 75 69 71 84 -2 8 -16 -1
-38 -26z m30 11 c0 -2 -10 -12 -22 -23 l-23 -19 19 23 c18 21 26 27 26 19z"/>
<path d="M3140 4404 c0 -11 12 -31 27 -45 17 -14 22 -16 13 -5 -8 11 -14 22
-14 25 1 3 -5 15 -12 26 -14 19 -14 19 -14 -1z"/>
<path d="M3557 4405 c3 -8 9 -12 14 -9 12 7 11 11 -5 17 -10 4 -13 1 -9 -8z"/>
<path d="M3576 4382 c-2 -4 -1 -14 3 -21 6 -9 11 -10 15 -2 4 6 2 11 -4 11 -6
0 -8 5 -5 10 3 6 4 10 1 10 -3 0 -7 -4 -10 -8z"/>
<path d="M3204 4324 c2 -10 8 -20 13 -21 6 -2 9 -14 6 -26 -4 -21 -4 -21 8 -3
9 16 9 21 -3 30 -8 6 -15 15 -16 19 0 5 -3 11 -5 14 -3 3 -4 -3 -3 -13z"/>
<path d="M3590 4330 c0 -5 5 -10 10 -10 6 0 10 5 10 10 0 6 -4 10 -10 10 -5 0
-10 -4 -10 -10z"/>
<path d="M2926 4273 c-3 -16 -3 -59 0 -98 3 -38 5 -93 5 -122 -1 -28 3 -54 9
-58 8 -5 9 3 5 27 -3 18 -2 38 3 45 8 13 242 21 262 8 6 -4 11 -27 9 -54 -1
-25 1 -53 4 -61 4 -8 8 -35 10 -60 2 -25 4 5 4 65 0 61 -5 116 -10 123 -8 10
-42 13 -139 11 -142 -4 -156 1 -141 48 l10 28 131 3 132 3 0 -41 c0 -22 5 -40
10 -40 15 0 12 62 -4 83 -11 15 -31 17 -151 17 l-138 0 5 50 c5 53 -6 69 -16
23z"/>
<path d="M3610 4280 c0 -8 5 -22 10 -30 9 -13 10 -13 10 0 0 8 -5 22 -10 30
-9 13 -10 13 -10 0z"/>
<path d="M7355 4262 c-5 -4 -46 -46 -90 -92 l-80 -85 93 90 c78 76 95 88 110
79 34 -22 18 -51 -92 -164 -60 -61 -114 -110 -120 -108 -6 2 -37 31 -70 65
-59 62 -66 86 -30 100 10 4 30 -9 58 -36 56 -55 63 -52 10 5 -35 39 -46 46
-67 40 -25 -6 -45 -41 -32 -54 4 -4 32 -35 63 -69 30 -35 63 -63 72 -63 10 0
59 45 110 100 51 55 96 97 101 94 5 -3 8 0 7 8 -2 7 2 12 7 11 18 -3 16 49 -2
69 -17 19 -32 22 -48 10z"/>
<path d="M3238 4254 c-5 -4 -8 -21 -8 -38 0 -21 3 -27 11 -19 6 6 9 23 7 38
-2 15 -6 23 -10 19z"/>
<path d="M2527 4199 c-6 -46 8 -197 19 -208 11 -11 11 9 2 59 -6 30 -8 83 -5
116 6 77 -8 105 -16 33z"/>
<path d="M3900 4200 c-31 -31 -23 -130 11 -130 6 0 3 10 -5 22 -35 49 -9 114
47 121 l32 4 -32 1 c-21 1 -40 -5 -53 -18z"/>
<path d="M3627 4162 c7 -69 11 -74 12 -15 1 28 -3 54 -8 57 -5 3 -6 -16 -4
-42z"/>
<path d="M4060 4160 c-24 -24 -25 -49 -4 -76 14 -18 15 -18 4 4 -15 32 -6 66
22 80 13 6 17 11 11 11 -7 1 -22 -8 -33 -19z"/>
<path d="M4244 4164 c9 -9 17 -35 18 -62 l1 -47 6 50 c5 38 2 53 -9 62 -22 18
-34 16 -16 -3z"/>
<path d="M4295 4170 c-3 -6 1 -7 9 -4 18 7 21 14 7 14 -6 0 -13 -4 -16 -10z"/>
<path d="M4393 4120 c0 -49 1 -54 4 -20 4 48 23 71 51 63 14 -3 17 -15 15 -56
l-1 -52 7 50 c10 62 -4 85 -43 67 -19 -8 -26 -8 -30 1 -2 7 -4 -17 -3 -53z"/>
<path d="M4494 4168 c-4 -7 -3 -8 5 -4 21 14 41 -15 43 -63 l1 -46 4 42 c2 23
-1 51 -7 63 -12 22 -35 26 -46 8z"/>
<path d="M4607 4168 c-28 -22 -32 -63 -8 -87 26 -26 53 -27 74 -3 19 21 22 50
7 72 -8 11 -9 8 -4 -12 11 -50 -32 -88 -64 -56 -20 20 -14 65 10 82 12 9 18
16 12 16 -6 0 -18 -6 -27 -12z"/>
<path d="M4732 4125 c1 -44 2 -49 5 -20 3 22 10 46 16 54 9 11 9 13 0 8 -6 -4
-14 -1 -16 5 -3 7 -5 -14 -5 -47z"/>
<path d="M4126 4145 c10 -15 13 -32 9 -46 -5 -14 -4 -19 4 -15 21 14 5 86 -20
86 -5 0 -2 -11 7 -25z"/>
<path d="M4186 4164 c7 -3 10 -13 9 -22 -12 -61 -13 -82 -5 -82 6 0 10 19 10
43 0 24 4 47 10 53 6 6 2 10 -13 11 -12 0 -17 -1 -11 -3z"/>
<path d="M4330 4118 c0 -32 4 -58 10 -58 13 0 13 80 0 100 -7 11 -10 -2 -10
-42z"/>
<path d="M3995 4090 c-3 -5 -20 -14 -38 -19 -23 -7 -26 -9 -11 -10 12 -1 32 8
45 19 13 10 21 19 17 20 -4 0 -10 -4 -13 -10z"/>
<path d="M3627 4083 c-4 -3 -7 -16 -6 -27 0 -19 1 -19 10 3 10 24 8 36 -4 24z"/>
<path d="M4088 4063 c7 -3 16 -2 19 1 4 3 -2 6 -13 5 -11 0 -14 -3 -6 -6z"/>
<path d="M3606 3998 c-4 -18 -19 -59 -35 -91 -15 -32 -25 -60 -21 -62 6 -4 43
65 46 85 0 3 5 16 11 30 20 47 24 70 15 70 -5 0 -13 -15 -16 -32z"/>
<path d="M2550 3970 c0 -5 5 -10 10 -10 6 0 10 5 10 10 0 6 -4 10 -10 10 -5 0
-10 -4 -10 -10z"/>
<path d="M2924 3966 c-3 -9 -4 -48 -2 -86 3 -53 8 -74 23 -87 16 -15 17 -16 6
-1 -8 11 -12 45 -10 97 2 80 -4 110 -17 77z"/>
<path d="M6930 3972 c0 -6 23 -35 51 -66 67 -73 134 -106 230 -111 l74 -4 -73
9 c-117 15 -191 57 -253 144 -16 21 -29 34 -29 28z"/>
<path d="M7506 3953 c-18 -34 -69 -84 -116 -112 -19 -11 -30 -21 -25 -21 17 0
68 35 103 71 32 32 68 89 58 89 -3 0 -12 -12 -20 -27z"/>
<path d="M2560 3939 c0 -5 5 -7 10 -4 6 3 10 8 10 11 0 2 -4 4 -10 4 -5 0 -10
-5 -10 -11z"/>
<path d="M2575 3920 c-3 -5 -1 -10 4 -10 6 0 11 5 11 10 0 6 -2 10 -4 10 -3 0
-8 -4 -11 -10z"/>
<path d="M3963 3869 c-30 -21 -40 -34 -36 -46 5 -14 8 -14 12 -2 3 8 17 15 31
16 24 3 25 2 5 -13 -42 -33 -55 -36 -55 -14 0 11 -4 20 -8 20 -23 0 -32 -30
-32 -101 l0 -77 61 -41 c34 -23 64 -40 66 -38 2 2 -22 21 -52 41 -62 41 -70
54 -61 91 8 33 26 23 26 -14 0 -32 54 -81 89 -81 15 0 19 -5 14 -16 -5 -14 -3
-15 14 -6 11 6 26 19 34 28 13 16 12 16 -7 6 -33 -17 -36 -3 -6 25 24 23 23
23 -12 -3 l-39 -28 -36 21 c-35 20 -36 23 -39 84 -2 63 -2 64 33 87 42 27 46
47 8 38 -26 -6 -27 -5 -9 9 10 8 23 12 29 8 6 -3 7 -1 3 5 -4 7 -2 12 3 12 6
0 11 -5 11 -11 0 -5 4 -8 9 -5 5 3 27 -8 50 -24 l41 -30 0 -78 c0 -43 -4 -83
-10 -90 -6 -8 -5 -8 4 0 10 9 15 40 18 91 l3 79 -60 43 -60 43 -42 -29z"/>
<path d="M2616 3841 c-4 -6 22 -39 56 -74 35 -35 48 -47 31 -27 -18 20 -33 41
-33 47 0 7 -8 18 -19 25 -10 7 -19 17 -19 21 -1 15 -10 19 -16 8z"/>
<path d="M4020 3840 c0 -5 14 -19 30 -32 17 -12 31 -31 31 -42 1 -19 2 -19 6
-2 3 13 -7 30 -31 52 -20 18 -36 29 -36 24z"/>
<path d="M4473 3819 c-18 -12 -33 -24 -33 -28 0 -16 13 -20 31 -10 18 9 19 5
19 -71 0 -72 2 -81 18 -78 15 3 17 16 17 102 0 58 -4 101 -10 102 -5 2 -25 -6
-42 -17z"/>
<path d="M4603 3825 c-31 -21 -45 -79 -33 -127 26 -95 134 -88 147 9 13 101
-48 164 -114 118z m61 -31 c21 -21 21 -97 0 -118 -45 -46 -84 67 -41 122 13
16 22 15 41 -4z"/>
<path d="M5165 3830 c-3 -6 1 -13 10 -16 19 -8 30 0 20 15 -8 14 -22 14 -30 1z"/>
<path d="M3217 3815 c-4 -8 -2 -17 3 -20 6 -4 10 3 10 14 0 25 -6 27 -13 6z"/>
<path d="M4850 3735 c0 -78 3 -95 15 -95 10 0 15 11 15 35 0 32 2 35 30 35 32
0 80 38 80 62 0 8 -7 24 -16 36 -12 18 -25 22 -70 22 l-54 0 0 -95z m101 59
c19 -23 -1 -48 -40 -52 -30 -3 -31 -2 -31 32 0 33 2 36 29 36 16 0 34 -7 42
-16z"/>
<path d="M5403 3803 c-4 -10 -14 -23 -22 -30 -14 -10 -14 -12 2 -18 13 -6 17
-19 17 -56 0 -42 3 -51 23 -58 12 -5 25 -7 30 -4 13 7 8 23 -8 23 -11 0 -15
12 -15 50 0 38 4 50 15 50 8 0 15 5 15 10 0 6 -7 10 -15 10 -8 0 -15 6 -15 14
0 23 -19 29 -27 9z"/>
<path d="M7310 3810 c-21 -7 -21 -8 -5 -9 11 0 27 4 35 9 18 11 5 11 -30 0z"/>
<path d="M3109 3787 c10 -12 26 -17 52 -15 21 1 35 6 32 11 -3 4 -19 7 -37 6
-17 -2 -38 1 -46 6 -13 8 -13 7 -1 -8z"/>
<path d="M3450 3745 c-100 -102 -272 -165 -409 -151 -36 4 -95 18 -131 30 -36
13 -74 27 -85 30 -11 4 5 -6 35 -23 75 -39 162 -55 263 -48 104 8 150 24 270
94 35 20 108 85 103 91 -3 3 -1 11 5 19 26 31 -1 9 -51 -42z"/>
<path d="M4330 3770 c0 -25 -4 -30 -25 -30 -16 0 -25 -6 -25 -15 0 -9 9 -15
24 -15 19 0 25 -6 28 -27 4 -34 22 -33 26 2 3 19 9 25 28 25 15 0 24 6 24 15
0 9 -9 15 -25 15 -21 0 -25 5 -25 30 0 20 -5 30 -15 30 -10 0 -15 -10 -15 -30z"/>
<path d="M2983 3783 c10 -9 56 -10 51 -1 -3 4 -17 8 -31 8 -15 0 -23 -3 -20
-7z"/>
<path d="M5020 3758 c-39 -42 -16 -110 42 -124 33 -7 78 32 78 69 0 65 -77
100 -120 55z m71 -8 c37 -21 21 -90 -21 -90 -16 0 -30 7 -34 16 -11 29 -6 63
12 73 21 13 20 13 43 1z"/>
<path d="M5170 3711 c0 -80 16 -105 22 -33 4 61 -1 102 -13 102 -5 0 -9 -31
-9 -69z"/>
<path d="M5235 3768 c-8 -25 0 -128 10 -131 6 -1 12 22 15 52 9 96 70 96 70 0
0 -27 5 -49 10 -49 14 0 12 114 -2 128 -7 7 -21 12 -33 12 -12 0 -26 -5 -33
-12 -9 -9 -12 -9 -12 0 0 16 -20 15 -25 0z"/>
<path d="M5500 3766 c-21 -26 -8 -59 28 -68 37 -10 44 -38 9 -38 -13 0 -28 5
-34 11 -7 7 -13 7 -17 0 -10 -16 36 -40 67 -34 54 11 42 83 -14 83 -23 0 -34
19 -20 33 9 9 16 8 31 -1 25 -15 30 -15 30 2 0 27 -60 36 -80 12z"/>
<path d="M2319 3552 c12 -41 36 -85 67 -121 28 -33 111 -87 120 -78 3 3 -5 11
-18 17 -12 7 -33 22 -46 34 -13 11 -27 21 -30 21 -4 0 -6 3 -5 7 2 4 -8 15
-22 24 -14 9 -22 20 -19 25 3 5 0 9 -6 9 -6 0 -9 4 -5 9 3 5 0 15 -7 23 -7 7
-13 19 -14 26 -2 27 -4 32 -13 32 -6 0 -6 -12 -2 -28z"/>
<path d="M7784 3442 c-21 -27 -56 -57 -77 -67 -22 -11 -34 -21 -28 -23 15 -5
78 35 85 53 3 8 9 14 13 13 4 -2 10 2 12 7 2 6 12 16 23 23 10 7 16 17 13 22
-3 4 1 11 7 13 7 3 8 6 2 6 -6 1 -28 -21 -50 -47z"/>
<path d="M2544 3339 c-2 -4 13 -9 34 -13 54 -9 4991 -5 5027 4 17 4 -1115 9
-2513 11 -1399 2 -2546 1 -2548 -2z"/>
<path d="M2753 2793 c37 -3 47 -8 43 -19 -3 -8 -1 -14 5 -14 6 0 9 8 7 18 -2
13 -14 17 -53 18 l-50 1 48 -4z"/>
<path d="M2953 2785 c-3 -9 -3 -19 1 -22 3 -4 6 1 6 10 0 12 12 17 48 20 l47
3 -48 2 c-35 2 -49 -2 -54 -13z"/>
<path d="M4455 2785 c-22 -8 -55 -31 -73 -50 -32 -35 -34 -41 -31 -98 3 -68
-8 -137 -22 -137 -5 0 -9 20 -9 44 0 33 -7 52 -25 74 -41 49 -175 84 -175 46
0 -42 26 -109 54 -139 26 -27 43 -35 84 -41 62 -8 72 -21 72 -93 0 -39 4 -51
15 -51 12 0 15 15 15 76 0 42 5 94 11 114 11 35 14 38 60 43 26 3 59 13 73 22
34 23 67 95 69 152 l2 48 -40 2 c-22 2 -58 -4 -80 -12z m-17 -112 c-14 -16
-31 -38 -37 -50 -12 -23 -31 -31 -31 -13 0 14 70 90 83 90 6 0 -1 -12 -15 -27z
m-173 -113 c10 -11 16 -20 13 -20 -3 0 -13 9 -23 20 -10 11 -16 20 -13 20 3 0
13 -9 23 -20z"/>
<path d="M5697 2793 c-4 -3 -7 -15 -7 -25 0 -14 -8 -18 -34 -18 -46 0 -60 -20
-51 -75 7 -52 51 -109 89 -119 13 -3 42 -24 65 -47 31 -32 41 -49 41 -74 0
-26 -5 -34 -24 -39 -36 -9 -59 -35 -46 -51 12 -15 197 -19 219 -6 19 12 2 40
-35 53 -30 11 -34 16 -34 48 0 29 6 39 35 58 19 12 35 26 35 32 0 5 20 18 45
29 50 22 80 63 90 123 8 48 -6 68 -50 68 -27 0 -34 5 -39 25 l-6 25 -144 0
c-78 0 -146 -3 -149 -7z m0 -136 c6 -34 8 -64 6 -67 -11 -12 -63 62 -63 88 0
33 3 37 28 39 15 1 20 -9 29 -60z m351 41 c5 -24 -24 -81 -49 -96 -20 -13 -20
-12 -14 45 4 32 10 62 12 66 8 14 48 3 51 -15z"/>
<path d="M7263 2776 c-24 -21 -28 -31 -28 -80 0 -74 31 -109 100 -110 41 -1
50 3 76 32 41 46 41 111 0 153 -39 39 -106 41 -148 5z"/>
<path d="M2666 2768 c-10 -14 -16 -44 -16 -75 0 -46 3 -53 20 -53 17 0 20 7
20 42 0 24 7 49 17 60 9 10 11 18 5 18 -17 0 -32 -35 -32 -74 0 -20 -4 -36
-10 -36 -5 0 -10 23 -10 50 0 37 5 55 20 70 11 11 16 20 11 20 -6 0 -17 -10
-25 -22z"/>
<path d="M2743 2763 c9 -2 23 -2 30 0 6 3 -1 5 -18 5 -16 0 -22 -2 -12 -5z"/>
<path d="M3040 2756 c0 -2 8 -10 18 -17 15 -13 16 -12 3 4 -13 16 -21 21 -21
13z"/>
<path d="M3098 2690 c-1 -28 0 -50 5 -50 4 0 7 23 7 50 0 65 -7 65 -12 0z"/>
<path d="M2956 2577 c3 -10 9 -15 12 -12 3 3 0 11 -7 18 -10 9 -11 8 -5 -6z"/>
<path d="M2781 2564 c0 -11 3 -14 6 -6 3 7 2 16 -1 19 -3 4 -6 -2 -5 -13z"/>
<path d="M7240 2524 c-71 -31 -120 -104 -106 -158 6 -23 8 -23 173 -28 92 -2
177 -3 190 0 86 16 21 162 -84 191 -54 15 -132 13 -173 -5z"/>
<path d="M2650 2442 c0 -49 4 -62 23 -78 22 -19 22 -19 5 2 -12 14 -18 38 -18
72 0 61 17 70 23 12 l4 -40 -1 42 c-1 32 -5 44 -18 46 -16 3 -18 -5 -18 -56z"/>
<path d="M3100 2447 l5 -52 3 44 c2 24 0 47 -5 52 -4 4 -6 -15 -3 -44z"/>
<path d="M3071 2434 c0 -11 3 -14 6 -6 3 7 2 16 -1 19 -3 4 -6 -2 -5 -13z"/>
<path d="M2704 2386 c11 -9 34 -15 50 -15 31 1 31 1 -4 8 -20 4 -42 11 -50 15
-8 4 -6 0 4 -8z"/>
<path d="M2795 2368 c6 -16 0 -18 -46 -20 l-54 -2 49 -3 c53 -5 78 9 57 30
-10 10 -11 9 -6 -5z"/>
<path d="M2950 2360 c0 -18 6 -20 53 -18 l52 2 -47 3 c-60 5 -63 21 -5 26 l42
4 -47 1 c-42 2 -48 -1 -48 -18z"/>
<path d="M3079 2363 c-13 -16 -12 -17 4 -4 16 13 21 21 13 21 -2 0 -10 -8 -17
-17z"/>
<path d="M6140 2105 c0 -33 -2 -35 -21 -25 -29 16 -69 -11 -69 -46 0 -48 17
-64 65 -64 l45 0 0 79 c0 44 -4 83 -10 86 -6 4 -10 -8 -10 -30z m-5 -64 c8
-26 -4 -51 -25 -51 -25 0 -43 25 -35 50 8 26 51 27 60 1z"/>
<path d="M7393 2133 c-7 -2 -13 -13 -13 -23 0 -11 -7 -23 -16 -28 -11 -6 -13
-11 -5 -16 6 -4 11 -27 11 -52 0 -32 4 -44 15 -44 11 0 15 12 15 44 0 27 5 46
13 49 9 3 9 8 -3 21 -13 16 -12 20 3 31 24 17 10 30 -20 18z"/>
<path d="M7500 2056 c0 -51 4 -86 10 -86 6 0 10 33 10 79 0 44 -4 83 -10 86
-6 4 -10 -25 -10 -79z"/>
<path d="M2659 2113 c-12 -15 -12 -16 1 -8 8 5 28 8 45 7 25 -1 27 0 10 7 -30
14 -41 13 -56 -6z"/>
<path d="M4010 2050 c0 -64 3 -80 15 -80 12 0 15 16 15 80 0 64 -3 80 -15 80
-12 0 -15 -16 -15 -80z"/>
<path d="M5428 2050 c2 -44 8 -80 13 -80 5 0 9 14 9 30 0 19 5 30 14 30 8 0
23 -13 33 -30 9 -16 23 -30 31 -30 10 0 9 6 -4 29 -16 27 -16 30 0 52 21 30
20 35 -4 59 -13 13 -33 20 -57 20 l-38 0 3 -80z m77 30 c0 -20 -6 -26 -27 -28
-25 -3 -28 0 -28 28 0 28 3 31 28 28 21 -2 27 -8 27 -28z"/>
<path d="M7030 2050 c0 -47 4 -80 10 -80 6 0 10 14 10 30 0 26 4 30 28 30 29
0 62 26 62 48 0 24 -40 52 -75 52 l-35 0 0 -80z m75 30 c0 -20 -6 -26 -27 -28
-25 -3 -28 0 -28 28 0 28 3 31 28 28 21 -2 27 -8 27 -28z"/>
<path d="M7442 2119 c2 -6 8 -10 13 -10 5 0 11 4 13 10 2 6 -4 11 -13 11 -9 0
-15 -5 -13 -11z"/>
<path d="M4650 2095 c0 -8 -5 -15 -11 -15 -8 0 -8 -4 -1 -13 6 -7 12 -30 14
-52 2 -33 7 -41 26 -43 25 -4 30 13 7 22 -9 3 -15 18 -15 36 0 20 5 30 15 30
20 0 19 6 -5 30 -24 24 -30 25 -30 5z"/>
<path d="M2642 2078 c6 -17 55 -41 71 -35 7 3 -3 8 -20 12 -18 4 -33 14 -33
21 0 8 -5 14 -11 14 -6 0 -9 -6 -7 -12z"/>
<path d="M4111 2081 c-8 -5 -20 -7 -28 -4 -10 4 -13 -8 -13 -51 0 -31 5 -56
10 -56 6 0 10 17 10 39 0 39 20 68 40 56 5 -3 10 -26 10 -51 0 -24 5 -44 10
-44 6 0 10 17 10 39 0 39 20 68 40 56 5 -3 10 -26 10 -51 0 -24 5 -44 10 -44
6 0 10 22 10 49 0 58 -17 79 -50 61 -16 -9 -25 -9 -33 -1 -13 13 -18 13 -36 2z"/>
<path d="M4311 2081 c-8 -5 -20 -7 -28 -4 -10 4 -13 -12 -13 -76 0 -47 4 -81
10 -81 6 0 10 13 10 28 0 25 3 28 28 24 39 -5 66 26 57 67 -4 17 -15 36 -25
41 -22 12 -21 12 -39 1z m29 -25 c6 -8 10 -25 8 -38 -2 -17 -10 -23 -28 -23
-18 0 -26 6 -28 23 -3 22 13 52 28 52 4 0 13 -7 20 -14z"/>
<path d="M4414 2076 c-23 -17 -13 -32 13 -18 20 10 43 6 43 -9 0 -5 -8 -9 -18
-9 -20 0 -62 -27 -62 -40 0 -21 31 -39 53 -31 12 4 28 6 35 4 8 -3 12 10 12
46 0 39 -4 53 -19 61 -26 13 -33 13 -57 -4z m56 -65 c0 -5 -7 -14 -15 -21 -18
-15 -42 1 -31 19 8 13 46 15 46 2z"/>
<path d="M4552 2079 c-29 -11 -46 -53 -32 -79 18 -34 48 -44 76 -25 33 21 30
25 -13 22 -35 -2 -38 0 -41 26 -4 32 21 46 49 29 21 -13 35 1 16 15 -23 19
-32 21 -55 12z"/>
<path d="M5575 2065 c-29 -28 -31 -42 -9 -73 18 -26 65 -30 84 -7 10 13 7 14
-25 12 -23 -1 -40 3 -42 11 -3 8 8 12 36 12 34 0 41 3 41 19 0 18 -34 51 -53
51 -4 0 -19 -11 -32 -25z m55 -10 c11 -13 8 -15 -19 -15 -31 0 -42 14 -18 23
20 9 24 8 37 -8z"/>
<path d="M5883 2079 c-13 -5 -23 -13 -23 -19 0 -13 13 -13 27 1 11 11 33 5 33
-10 0 -4 -15 -11 -32 -16 -38 -12 -50 -48 -21 -63 27 -14 86 -3 79 15 -3 8 -6
30 -6 48 0 40 -23 57 -57 44z m37 -68 c0 -5 -6 -14 -14 -20 -10 -8 -16 -8 -25
2 -6 8 -8 17 -4 20 9 10 43 8 43 -2z"/>
<path d="M6015 2080 c-3 -5 -12 -7 -20 -3 -12 4 -15 -6 -15 -51 0 -31 5 -56
10 -56 6 0 10 18 10 41 0 32 4 42 20 46 11 3 20 12 20 19 0 16 -16 19 -25 4z"/>
<path d="M6204 2076 c-21 -16 -14 -50 11 -54 29 -6 41 -20 27 -34 -8 -8 -15
-8 -27 2 -18 15 -34 5 -18 -11 6 -6 23 -9 39 -7 21 2 30 9 32 26 3 18 -3 26
-27 35 -17 6 -31 15 -31 19 0 15 21 19 36 7 16 -13 30 -7 20 9 -10 16 -44 20
-62 8z"/>
<path d="M7263 2080 c-27 -11 -39 -53 -24 -86 8 -18 18 -24 44 -24 42 0 57 15
57 56 0 23 -7 38 -22 48 -25 18 -25 18 -55 6z m57 -50 c0 -10 -7 -26 -16 -35
-15 -15 -18 -15 -35 1 -23 21 -24 38 -3 58 19 20 54 5 54 -24z"/>
<path d="M7446 2083 c-3 -3 -6 -30 -6 -60 0 -40 4 -53 15 -53 11 0 15 13 15
54 0 51 -9 74 -24 59z"/>
<path d="M7565 2065 c-14 -13 -25 -31 -25 -40 0 -17 43 -65 58 -65 6 0 20 9
33 20 18 14 20 19 9 20 -9 0 -21 -5 -28 -12 -8 -8 -15 -8 -27 2 -25 21 -17 30
25 30 33 0 40 3 40 19 0 18 -34 51 -53 51 -4 0 -19 -11 -32 -25z m55 -10 c11
-13 8 -15 -20 -15 -28 0 -31 2 -20 15 7 8 16 15 20 15 4 0 13 -7 20 -15z"/>
<path d="M2790 2065 c-29 -35 -7 -95 35 -95 12 0 28 7 35 15 14 17 0 21 -17 4
-17 -17 -53 7 -53 35 0 34 26 53 51 38 26 -16 33 -15 15 3 -19 19 -50 19 -66
0z"/>
<path d="M2910 2070 c-8 -5 -11 -12 -7 -17 5 -4 12 -1 16 6 11 17 45 10 49
-11 2 -12 -5 -17 -30 -20 -28 -2 -33 -7 -33 -28 0 -19 6 -26 25 -27 l25 -3
-23 10 c-30 13 -23 34 12 38 24 3 27 0 24 -19 -2 -12 3 -24 10 -26 16 -6 17
78 0 95 -14 14 -47 15 -68 2z"/>
<path d="M3022 2025 c-1 -32 2 -55 8 -55 5 0 10 18 10 39 0 30 6 44 22 55 12
9 18 16 12 16 -5 0 -15 -5 -22 -12 -9 -9 -12 -9 -12 0 0 7 -4 12 -8 12 -4 0
-9 -25 -10 -55z"/>
<path d="M5685 2033 c8 -27 15 -51 15 -55 0 -5 6 -8 14 -8 7 0 20 17 28 38
l15 37 9 -34 c17 -62 44 -47 59 32 5 24 3 37 -3 37 -6 0 -14 -16 -18 -35 -7
-40 -20 -38 -29 5 -11 49 -45 33 -45 -21 0 -32 -17 -21 -24 16 -4 20 -13 35
-21 35 -12 0 -12 -7 0 -47z"/>
<path d="M7160 2023 c0 -29 5 -53 10 -53 6 0 10 18 10 41 0 32 4 42 20 46 30
8 24 22 -10 21 -29 -1 -30 -2 -30 -55z"/>
<path d="M3098 2020 c2 -27 8 -50 14 -50 12 0 6 92 -7 97 -6 2 -9 -17 -7 -47z"/>
<path d="M2730 2015 c0 -15 4 -24 10 -20 6 3 10 12 10 20 0 8 -4 17 -10 20 -6
4 -10 -5 -10 -20z"/>
<path d="M2640 2001 c0 -6 4 -12 8 -15 5 -3 9 1 9 9 0 8 -4 15 -9 15 -4 0 -8
-4 -8 -9z"/>
<path d="M2677 1979 c7 -7 15 -10 18 -7 3 3 -2 9 -12 12 -14 6 -15 5 -6 -5z"/>
<path d="M4018 1509 c-21 -12 -24 -52 -4 -68 10 -8 302 -10 1086 -9 l1073 3
14 22 c13 19 12 24 -6 42 -21 21 -22 21 -1083 21 -704 -1 -1069 -4 -1080 -11z"/>
</g>
</svg>
