<?xml version="1.0" standalone="no"?>
<!DOCTYPE svg PUBLIC "-//W3C//DTD SVG 20010904//EN"
 "http://www.w3.org/TR/2001/REC-SVG-20010904/DTD/svg10.dtd">
<svg version="1.0" xmlns="http://www.w3.org/2000/svg"
 width="1536.000000pt" height="1024.000000pt" viewBox="0 0 1536.000000 1024.000000"
 preserveAspectRatio="xMidYMid meet">

<g transform="translate(0.000000,1024.000000) scale(0.100000,-0.100000)"
fill="#000000" stroke="none">
<path d="M6745 5871 c-121 -75 -125 -242 -7 -309 133 -74 286 41 258 193 -8
40 -55 99 -97 121 -40 20 -118 18 -154 -5z"/>
<path d="M5700 5080 l0 -760 420 0 420 0 0 155 0 155 -260 0 -260 0 0 605 0
605 -160 0 -160 0 0 -760z"/>
<path d="M10540 5080 l0 -760 418 2 417 3 0 150 0 150 -257 3 -258 2 -2 603
-3 602 -157 3 -158 3 0 -761z"/>
<path d="M7248 5563 l-3 -138 -75 -5 -75 -5 -3 -132 -4 -132 79 -3 78 -3 5
-300 c7 -345 11 -367 89 -445 74 -73 180 -99 345 -85 l86 7 0 139 0 139 -85 0
c-143 0 -148 12 -143 340 l3 205 113 3 112 3 0 134 0 134 -112 3 -113 3 -3
138 -3 137 -144 0 -144 0 -3 -137z"/>
<path d="M8010 5560 l0 -140 -75 0 -75 0 0 -135 0 -135 75 0 75 0 0 -265 c0
-157 5 -285 11 -317 41 -193 170 -271 420 -253 l99 7 0 139 0 139 -84 0 c-75
0 -88 3 -113 24 l-28 24 -3 251 -3 251 116 0 115 0 0 135 0 135 -115 0 -115 0
0 140 0 140 -150 0 -150 0 0 -140z"/>
<path d="M13757 5694 c-4 -4 -7 -67 -7 -141 l0 -133 -70 0 -70 0 0 -135 0
-135 69 0 69 0 4 -292 c4 -276 6 -296 28 -352 57 -148 185 -209 400 -190 l80
7 0 138 0 139 -80 0 c-73 0 -83 3 -105 25 l-25 24 0 251 0 250 105 0 105 0 0
135 0 135 -105 0 -104 0 -3 138 -3 137 -141 3 c-77 1 -143 -1 -147 -4z"/>
<path d="M9064 5440 c-212 -32 -374 -170 -440 -373 -23 -69 -27 -100 -27 -197
0 -99 4 -126 27 -195 35 -102 72 -160 150 -232 104 -98 227 -143 391 -143 140
0 268 44 363 126 38 32 120 141 111 147 -2 2 -60 27 -129 55 l-125 50 -33 -34
c-49 -51 -88 -67 -172 -72 -63 -4 -85 -1 -128 18 -54 23 -116 82 -132 126 -22
57 -42 54 369 54 336 0 380 2 385 16 3 9 6 48 6 87 -1 205 -90 386 -241 486
-101 68 -252 100 -375 81z m151 -271 c63 -17 112 -56 139 -112 14 -27 23 -54
20 -58 -7 -12 -435 -11 -453 0 -23 15 23 96 73 130 70 48 142 61 221 40z"/>
<path d="M11858 5440 c-286 -51 -473 -301 -454 -605 15 -244 147 -434 352
-506 83 -29 222 -36 301 -16 287 74 456 360 399 675 -38 213 -183 382 -373
437 -65 18 -168 25 -225 15z m160 -306 c47 -19 98 -68 125 -119 28 -55 35
-185 13 -252 -61 -184 -288 -226 -403 -75 -43 57 -56 110 -51 207 5 90 26 141
80 192 63 61 158 80 236 47z"/>
<path d="M12975 5439 c-81 -12 -208 -76 -269 -136 -110 -108 -165 -231 -173
-394 -15 -269 126 -501 353 -580 83 -28 212 -35 297 -15 99 23 164 60 242 140
113 114 165 245 165 416 0 211 -86 386 -241 489 -104 69 -245 100 -374 80z
m156 -301 c99 -29 162 -129 163 -258 1 -95 -14 -145 -60 -198 -49 -58 -105
-85 -174 -85 -157 0 -264 158 -230 339 30 157 160 245 301 202z"/>
<path d="M10235 5411 c-66 -31 -92 -56 -124 -116 l-21 -40 0 83 0 82 -145 0
-145 0 0 -550 0 -551 148 3 147 3 5 325 5 325 27 46 c37 63 105 99 203 106
l75 6 0 153 0 154 -57 0 c-43 0 -73 -7 -118 -29z"/>
<path d="M6680 4870 l0 -551 148 3 147 3 3 548 2 547 -150 0 -150 0 0 -550z"/>
<path d="M3490 5236 c0 -2 8 -10 18 -17 15 -13 16 -12 3 4 -13 16 -21 21 -21
13z"/>
<path d="M3591 5134 c0 -11 3 -14 6 -6 3 7 2 16 -1 19 -3 4 -6 -2 -5 -13z"/>
<path d="M3370 5106 c0 -2 8 -10 18 -17 15 -13 16 -12 3 4 -13 16 -21 21 -21
13z"/>
<path d="M3455 5020 c10 -11 20 -20 23 -20 3 0 -3 9 -13 20 -10 11 -20 20 -23
20 -3 0 3 -9 13 -20z"/>
<path d="M3623 4983 c9 -2 23 -2 30 0 6 3 -1 5 -18 5 -16 0 -22 -2 -12 -5z"/>
<path d="M3924 4802 c-6 -4 -19 -29 -30 -55 -21 -54 -79 -100 -148 -118 -23
-6 -46 -17 -52 -25 -10 -12 -12 -12 -17 5 -8 34 -101 34 -112 0 -4 -11 -11
-16 -17 -13 -6 4 -8 3 -5 -3 4 -6 2 -24 -3 -42 -5 -19 -5 -29 1 -26 5 4 9 1 9
-6 0 -7 3 -10 6 -6 10 9 43 -25 37 -39 -3 -9 2 -14 12 -14 14 0 13 -4 -6 -25
-13 -13 -33 -25 -44 -25 -25 0 -39 -9 -52 -34 -15 -27 3 -43 41 -39 29 2 30 2
6 -6 -24 -9 -24 -9 8 -10 18 -1 31 3 28 8 -3 4 5 7 17 5 12 -2 92 7 177 21
104 16 130 22 80 19 -69 -5 -73 -5 -55 10 11 8 24 16 29 16 5 0 14 7 20 16 7
9 25 17 42 17 16 1 35 10 42 19 7 10 24 18 38 18 13 0 24 5 24 11 0 5 -4 8 -9
4 -5 -3 -12 -1 -16 5 -3 5 -1 10 4 10 17 0 8 52 -11 64 -14 8 -16 19 -12 48 8
46 -5 170 -16 163 -4 -3 -6 4 -3 15 6 22 4 24 -13 12z"/>
<path d="M2550 4546 c0 -2 8 -10 18 -17 15 -13 16 -12 3 4 -13 16 -21 21 -21
13z"/>
<path d="M2735 4420 c6 -9 -12 -13 -61 -13 -12 0 -26 -8 -32 -18 -10 -15 -4
-22 43 -48 54 -31 76 -52 33 -31 -21 10 -21 9 1 -7 13 -10 43 -29 65 -41 36
-21 38 -21 16 -3 -14 12 -18 19 -9 16 12 -5 20 2 27 24 7 20 7 31 1 31 -5 0
-2 12 8 28 17 26 17 27 -2 12 -17 -14 -18 -13 -12 3 4 11 3 16 -3 12 -6 -3
-10 -2 -10 3 0 4 -16 16 -36 25 -19 10 -33 13 -29 7z"/>
<path d="M2607 4400 c6 -24 0 -25 -35 -4 l-27 16 22 -18 c25 -21 133 -82 121
-69 -4 5 -25 19 -45 31 -21 13 -33 24 -26 24 12 0 6 40 -7 40 -5 0 -6 -9 -3
-20z"/>
<path d="M3278 4413 c7 -3 16 -2 19 1 4 3 -2 6 -13 5 -11 0 -14 -3 -6 -6z"/>
<path d="M3128 4403 c23 -2 59 -2 80 0 20 2 1 4 -43 4 -44 0 -61 -2 -37 -4z"/>
<path d="M4098 4403 c7 -3 16 -2 19 1 4 3 -2 6 -13 5 -11 0 -14 -3 -6 -6z"/>
<path d="M3003 4393 c9 -2 25 -2 35 0 9 3 1 5 -18 5 -19 0 -27 -2 -17 -5z"/>
<path d="M4013 4393 c9 -2 25 -2 35 0 9 3 1 5 -18 5 -19 0 -27 -2 -17 -5z"/>
<path d="M3953 4383 c9 -2 23 -2 30 0 6 3 -1 5 -18 5 -16 0 -22 -2 -12 -5z"/>
<path d="M3473 4313 c9 -2 23 -2 30 0 6 3 -1 5 -18 5 -16 0 -22 -2 -12 -5z"/>
<path d="M3328 4293 c7 -3 16 -2 19 1 4 3 -2 6 -13 5 -11 0 -14 -3 -6 -6z"/>
<path d="M2918 4233 c6 -2 18 -2 25 0 6 3 1 5 -13 5 -14 0 -19 -2 -12 -5z"/>
</g>
</svg>
